<?xml version="1.0" encoding="utf-8"?>
<!-- Generator: Adobe Illustrator 16.0.0, SVG Export Plug-In . SVG Version: 6.00 Build 0)  -->
<!DOCTYPE svg PUBLIC "-//W3C//DTD SVG 1.1//EN" "http://www.w3.org/Graphics/SVG/1.1/DTD/svg11.dtd">
<svg version="1.1" id="Layer_1" xmlns="http://www.w3.org/2000/svg" xmlns:xlink="http://www.w3.org/1999/xlink" x="0px" y="0px"
	 width="100px" height="100px" viewBox="0 0 100 100" enable-background="new 0 0 100 100" xml:space="preserve">
<path fill-rule="evenodd" clip-rule="evenodd" fill="#FFFFFF" d="M58.305,44.285h1.282v11.409h-1.282V44.285L58.305,44.285z
	 M80.091,44.285v11.409h-1.442l-4.811-9.187v9.187h-1.26V44.285h1.533l4.697,9.231h0.023v-9.231H80.091L80.091,44.285z
	 M99.908,44.285v1.375h-5.613v3.504h5.155v1.375h-5.155v3.78H100v1.375h-6.963V44.285H99.908L99.908,44.285z M4.352,45.361
	c-0.894,0-1.603,0.367-2.153,1.146c-0.641,0.802-0.939,1.947-0.939,3.391c0,3.161,1.055,4.742,3.162,4.742
	c0.573,0,1.031-0.206,1.443-0.572c0.618-0.552,1.031-1.375,1.236-2.566h1.216c-0.23,1.879-0.871,3.161-1.994,3.894
	c-0.641,0.413-1.328,0.619-2.131,0.619c-1.191,0-2.176-0.457-2.933-1.374C0.365,53.563-0.046,52.005,0,49.943
	c-0.046-1.81,0.343-3.208,1.145-4.284c0.803-1.1,1.855-1.673,3.207-1.673c1.146,0,2.085,0.366,2.818,1.145
	c0.619,0.688,0.962,1.558,1.077,2.589H7.01C6.712,46.163,5.841,45.361,4.352,45.361L4.352,45.361z M27.377,44.285v1.375h-5.613
	v3.504h5.179v1.375h-5.179v3.78h5.727v1.375h-6.986V44.285H27.377L27.377,44.285z M41.26,44.285v10.034h4.742v1.375h-6.025V44.285
	H41.26L41.26,44.285z"/>
</svg>
