<?xml version="1.0" encoding="utf-8"?>
<!-- Generator: Adobe Illustrator 16.0.0, SVG Export Plug-In . SVG Version: 6.00 Build 0)  -->
<!DOCTYPE svg PUBLIC "-//W3C//DTD SVG 1.1//EN" "http://www.w3.org/Graphics/SVG/1.1/DTD/svg11.dtd">
<svg version="1.1" id="Layer_1" xmlns="http://www.w3.org/2000/svg" xmlns:xlink="http://www.w3.org/1999/xlink" x="0px" y="0px"
	 width="100px" height="100px" viewBox="0 0 100 100" enable-background="new 0 0 100 100" xml:space="preserve">
<g>
	<path fill-rule="evenodd" clip-rule="evenodd" fill="#FFFFFF" d="M33.33,44.598l-1.107-0.547c0.214-0.283,0.671-0.387,1.107-0.488
		C33.559,43.992,33.458,44.052,33.33,44.598L33.33,44.598z M34.797,43.735c0.401-0.212,0.59-0.345,1.208-0.345
		c0,0.722-0.05,0.531-0.085,0.949c-0.267-0.062-0.387-0.151-0.605-0.259C35.059,43.954,34.961,43.957,34.797,43.735L34.797,43.735z
		 M38.51,43.043l-0.086,0.95c-0.509-0.118-0.613-0.399-1.122-0.519C37.534,43.159,37.958,43.043,38.51,43.043L38.51,43.043z
		 M30.137,43.043c0.197-0.046,1.294-0.609,1.294-0.172c0,0.434-0.077,0.386-0.086,0.776C30.962,43.617,30.423,43.292,30.137,43.043
		L30.137,43.043z M39.805,42.526c0.889-0.208,1.208-0.821,1.208,0.345c0,0.464-0.441,0.183-0.72,0.029
		C40.077,42.782,39.928,42.695,39.805,42.526L39.805,42.526z M49.213,42.439c0.495-0.115,0.524-0.345,1.208-0.345l-0.086,0.949
		C50.082,43.023,49.361,42.639,49.213,42.439L49.213,42.439z M48.178,41.836l-0.087,0.949c-0.457-0.106-0.756-0.42-1.122-0.518
		C47.202,41.95,47.626,41.836,48.178,41.836L48.178,41.836z M45.761,41.836c0.112,0.482,0.028,0.46-0.087,0.949
		c-0.509-0.118-0.611-0.398-1.122-0.518C44.786,41.948,45.306,41.836,45.761,41.836L45.761,41.836z M42.308,42.095
		c0.747-0.174,1.474-0.904,1.122,0.604c-0.474-0.04-0.666-0.325-1.122-0.432V42.095L42.308,42.095z M32.813,42.008
		c0.478-0.111,1.208-0.749,1.208,0c0,0.298-0.064,0.334-0.086,0.605c-0.474-0.04-0.667-0.326-1.122-0.432V42.008L32.813,42.008z
		 M36.18,41.49c0.586,0,0.319,0.644,0.172,0.95l-1.107-0.548C35.413,41.671,35.974,41.49,36.18,41.49L36.18,41.49z M28.583,41.663
		c0.136-0.032,1.81-0.923,1.036,0.69l-0.869-0.427C28.442,41.693,28.706,41.897,28.583,41.663L28.583,41.663z M37.647,41.317
		c0.166-0.038,1.913-1.044,1.122,0.604L37.647,41.317L37.647,41.317z M51.89,40.973c0.019-0.005,1.849-1.003,1.036,0.69
		c-0.281-0.188-0.663-0.431-1.036-0.519V40.973L51.89,40.973z M30.655,40.973c0.167-0.04,1.913-1.044,1.122,0.604L30.655,40.973
		L30.655,40.973z M49.645,40.627c0.4-0.212,0.59-0.347,1.208-0.347c0,0.575,0.049,0.531-0.172,0.951
		C50.361,41.062,49.85,40.905,49.645,40.627L49.645,40.627z M40.063,40.541c0.584-0.136,1.295-0.733,1.295,0
		c0,0.297-0.064,0.334-0.087,0.604L40.063,40.541L40.063,40.541z M43.862,40.109c0,0.268-0.088,0.602-0.172,0.777l-1.107-0.548
		C42.77,40.094,43.862,39.624,43.862,40.109L43.862,40.109z M48.437,40.886c-0.365-0.097-0.666-0.411-1.122-0.517
		c0.233-0.317,0.657-0.433,1.208-0.433C48.572,40.522,48.588,40.234,48.437,40.886L48.437,40.886z M44.984,40.109
		c0.026-0.005,1.844-0.992,1.037,0.69c-0.336-0.178-0.63-0.423-1.037-0.519V40.109L44.984,40.109z M33.158,40.196
		c0.747-0.174,1.473-0.904,1.123,0.604C33.909,40.769,33.299,40.387,33.158,40.196L33.158,40.196z M28.842,39.764l-0.086,0.949
		c-0.511-0.119-0.613-0.399-1.123-0.517C27.865,39.878,28.289,39.764,28.842,39.764L28.842,39.764z M35.661,39.764
		c0.423-0.1,0.676-0.334,1.208-0.346c0.356,1.526-0.62,0.725-0.689,0.689C35.919,39.976,35.831,39.996,35.661,39.764L35.661,39.764z
		 M39.287,38.9L39.2,39.85c-0.434-0.101-0.618-0.4-1.122-0.518C38.311,39.016,38.734,38.9,39.287,38.9L39.287,38.9z M29.878,39.246
		c0.479-0.111,1.208-0.748,1.208,0c0,0.298-0.065,0.334-0.087,0.604C30.597,39.816,30.053,39.508,29.878,39.246L29.878,39.246z
		 M62.162,38.469c0.334,0,0.783,0.133,1.006,0.375c0.166,0.181,0.082-0.089,0.116,0.316c-0.496,0.04-1.091,0.246-1.641,0.258
		c-0.025-0.301-0.105-0.305,0.033-0.564C61.761,38.694,61.966,38.469,62.162,38.469L62.162,38.469z M50.077,38.729
		c0.4-0.212,0.59-0.347,1.208-0.347c0,0.723-0.052,0.532-0.086,0.95c-0.267-0.062-0.387-0.151-0.604-0.258
		C50.339,38.947,50.24,38.951,50.077,38.729L50.077,38.729z M32.985,38.382c-0.332,0-0.791,0.215-0.949,0.432
		c0.366,0.098,0.666,0.413,1.122,0.518l0.086-0.95H32.985L32.985,38.382z M65.183,38.124h0.259c0.108,0.202,0.149,0.225,0.174,0.518
		c-0.273,0.023-0.746,0.238-0.874,0.111C64.629,38.64,64.9,38.124,65.183,38.124L65.183,38.124z M40.496,38.555
		c0.455-0.105,0.635-0.345,1.208-0.345c0.088,0.38,0.081,0.601-0.086,0.95C41.321,39.09,40.658,38.777,40.496,38.555L40.496,38.555z
		 M47.747,38.297c0.494-0.115,0.524-0.346,1.208-0.346c0.032,0.376,0.096,0.57-0.087,0.949
		C48.572,38.831,47.909,38.518,47.747,38.297L47.747,38.297z M42.998,38.21c0.748-0.174,1.475-0.903,1.123,0.604
		c-0.474-0.04-0.667-0.325-1.123-0.432V38.21L42.998,38.21z M45.329,38.124c0.667-0.155,1.295-0.723,1.295,0
		c0,0.298-0.063,0.334-0.086,0.605C46.155,38.696,45.616,38.373,45.329,38.124L45.329,38.124z M27.806,38.124
		c0.167-0.039,1.913-1.044,1.122,0.605c-0.292-0.069-0.33-0.152-0.575-0.289L27.806,38.124L27.806,38.124z M30.137,37.347
		c0.714-0.167,1.208-0.76,1.208,0.173c0,0.264-0.083,0.348-0.173,0.518c-0.281-0.188-0.663-0.431-1.035-0.518V37.347L30.137,37.347z
		 M32.208,36.743c0.146-0.034,1.295-0.634,1.295-0.173c0,0.434-0.078,0.387-0.086,0.777c-0.32-0.026-0.394-0.097-0.621-0.241
		L32.208,36.743L32.208,36.743z M28.928,36.052c0.124,0.234-0.141,0.031,0.169,0.263l0.867,0.428
		C30.738,35.128,29.065,36.02,28.928,36.052L28.928,36.052z M30.915,35.361c0.241-0.056,1.797-0.899,1.035,0.691
		c-0.193-0.103-0.354-0.181-0.577-0.287c-0.05-0.024-0.283-0.135-0.291-0.141C30.773,35.393,31.036,35.596,30.915,35.361
		L30.915,35.361z M33.244,35.103c0.136-0.032,1.81-0.923,1.037,0.69c-0.229-0.121-0.823-0.461-1.037-0.519V35.103L33.244,35.103z
		 M31.863,33.894c0.162,0.222,0.826,0.536,1.122,0.605l0.086-0.951C32.387,33.548,32.357,33.779,31.863,33.894L31.863,33.894z
		 M33.849,33.204c0.494-0.115,0.524-0.345,1.208-0.345l-0.086,0.949C34.675,33.739,34.011,33.425,33.849,33.204L33.849,33.204z
		 M35.748,32.6c0.4-0.212,0.59-0.346,1.208-0.346c0,0.575,0.049,0.531-0.173,0.95C36.463,33.034,35.951,32.877,35.748,32.6
		L35.748,32.6z M54.135,26.902c-0.517,0-0.574-0.224-0.93,0.193c-0.183,0.215-0.326,0.584-0.711,0.584
		c-0.317,0-0.2-0.259-0.519-0.259c-0.681,0-0.728,0.69-1.208,0.69c-0.403,0-0.493-0.259-0.777-0.259
		c-0.619,0-1.065,0.863-1.293,0.863c-0.994,0-0.395-0.81-1.726,0.087c-0.275,0.185-0.481,0.274-0.778,0.431
		c-0.721-0.381-0.577-0.783-1.445,0.108c-0.284,0.291-0.533,0.414-0.885,0.583c-0.401-0.349-0.506-0.777-0.777-0.777
		c-0.297,0-0.971,0.74-1.242,0.919c-0.485,0.323-0.708,0.085-0.952-0.279c-0.592-0.883-1.181,0.742-2.209,0.742
		c-0.391-0.74-0.542-0.85-1.358-0.15c-0.141,0.121-0.208,0.232-0.351,0.339c-0.146,0.111-0.298,0.163-0.449,0.243
		c-0.708-0.475-0.561-0.73-1.416,0.052l-0.33,0.36c-0.583,0.594-0.701-0.067-1.189-0.067c-0.708,0-1.569,1.554-1.727,1.554
		c-0.626,0-0.448-0.838-1.519,0.553c-0.152,0.198-0.229,0.301-0.364,0.5c-0.063,0.093-0.115,0.167-0.178,0.253
		c-0.16,0.219-0.111,0.061-0.184,0.335c-0.576-0.048-0.462-0.443-1.101,0.106c-0.755,0.65-1.886,2.602-2.253,3.53
		c-0.165,0.414-0.324,0.715-0.478,1.164c-0.55,1.601-0.829,3.168-0.829,4.953c0,1.53,0.537,3.96,1.123,4.834
		c1.019-0.237,0.767-0.703,1.276-1.399c0.175-0.241,0.237-0.319,0.623-0.327c-0.07,0.295-0.177,0.614-0.294,0.914
		c-0.356,0.908-0.915,2.183-0.915,3.143c0,0.673,1.687,3.451,2.177,2.608c0.158-0.271-0.058-0.854,0.445-0.753
		c0.211,0.043,0.978,0.457,1.176,0.562c0.328-0.173,0.37-0.119,0.486-0.55c0.122-0.449,0.07-0.415,0.291-0.745
		c0.475,0,0.84,0.345,1.036,0.345c0.592,0,1.626-3.366-0.95-3.366h-0.776c0.031-0.375,0.228-0.842,0.334-1.132
		c0.376-1.025,0.484-2.561-0.573-3.205c-0.188-0.114-0.613-0.275-0.814-0.308c-0.568-0.089-0.799,0.209-0.846-0.361h0.863
		c1.272,0,2.244,0.883,2.244,2.158c0,0.964-0.259,1.694-0.259,2.331c0.378,0,1.148,0.099,1.412,0.229
		c0.391,0.19,0.618,0.562,0.659,1.066c1.057,0.246,5.491,1.408,6.441-0.207c0.19-0.324,0.253-0.521,0.49-0.805
		c0.215-0.258,0.363-0.46,0.6-0.695c0.445-0.441,0.991-0.758,1.562-1.028c0.616-0.293,1.252-0.459,2.129-0.459
		c-0.069,0.299-0.108,0.353-0.4,0.462c-1.254,0.469-2.163,0.492-2.966,1.695c-0.6,0.898-0.825,2.17,0.064,2.958
		c0.207,0.185,0.304,0.188,0.527,0.336c1.054,0.689,1.008,3.79,2.32,2.207c0.239-0.286,0.216-0.362,0.542-0.58
		c0.197,0.132,0.233,0.193,0.408,0.369c0.302,0.304,0.19,0.151,0.542,0.321l0.096-0.076c0.061-0.051,0.084-0.054,0.14-0.12
		c0.213-0.251,0.214-0.656,0.454-0.928l0.087-0.085c0.473,0.11,1.203,1.181,1.584,0.204c0.088-0.223,0.024-0.216,0.085-0.435
		c0.13-0.468-0.015-0.188,0.229-0.288c0.292-0.144,0.523,0.346,0.777,0.346c0.956,0,1.209-2.274-2.296-3.142
		c-0.458-0.114-1.109-0.091-1.157-0.656c0.771,0,1.64,0.199,2.413,0.264c3.845,0.321,6.425,0.049,10.035-0.937
		c2.545-0.694,1.09-0.976,3.891-0.559l1.788,0.198c0.451,0.008,0.529,0.057,0.865,0.083c0.327,0.025,0.707-0.024,1.034,0.002
		c2.299,0.181,7.019,0.276,8.778-0.546c0.62-0.29,0.977-0.658,0.977-1.354l-0.634-0.401c-0.198-0.11-0.503-0.462-0.574-0.462
		c-0.426,0-0.669,0.512-0.935-0.015c-0.197-0.391-0.221-0.439-0.639-0.273c-0.297,0.119-0.093,0.106-0.498,0.114
		c-0.188-0.808-0.528-0.629-1.123-0.345l-0.186-0.332c-0.102-0.188-0.127-0.182-0.245-0.358c-0.388,0.09-0.538,0.259-0.863,0.259
		c-0.358-0.746-0.301-0.78-1.122-0.346c-1.123-1.676-0.112,0.324-2.801-0.825c-0.405-0.174-1.37-0.624-1.58-1.009
		c-0.075-0.14-0.075-0.182-0.108-0.323c0.455-0.107,0.585-0.153,0.95-0.345c0.1,0.087-0.041-0.02,0.139,0.119
		c0.25,0.191,0.428,0.313,0.725,0.313c0.211-0.399,0.17-1.154,0.757-0.767c0.794,0.521,0.608,0.138,0.829-0.41
		c0.128-0.321,0.319-0.271,0.545-0.101c0.759,0.57,0.641,0.067,0.836-0.417c0.128-0.322,0.321-0.271,0.544-0.101
		c0.198,0.151,0.349,0.242,0.632,0.242c0.119-0.249,0.189-0.565,0.259-0.863c0.613,0,0.535,0.345,1.122,0.345
		c0.12-0.249,0.189-0.565,0.26-0.863c0.611,0,0.534,0.346,1.123,0.346c0.118-0.249,0.188-0.565,0.257-0.863
		c0.613,0,0.535,0.345,1.123,0.345c0.098-0.205,0.16-0.623,0.279-0.758l0.67-0.451c0-2.078-2.231-1.441-3.471-1.141
		c-0.882,0.213-5.103,1.313-5.851,1.313c-0.819-1.548-1.527-0.69-2.677-0.69c-0.612,0-1.027-0.345-1.64-0.345
		c-1.249,0-1.795,0.874-2.85,1.13c-0.335,0.082-1.042-0.094-1.554-0.094c-1.415,0-1.238,0.847-3.206,0.185
		c-0.377-0.128-0.639-0.204-1.054-0.326c-0.777-0.228-1.477-0.392-2.293-0.557l-5.79-0.509c-2.531,0.199-4.554,0.432-6.96,1.241
		c-0.392,0.131-0.77,0.225-1.161,0.307c-3.049,0.632-4.424-1.002-0.65-2.549c2.077-0.852,4.19-1.351,6.388-1.899
		c1.173-0.293,2.159-0.551,3.234-0.909c2.196-0.732,4.491-1.616,6.35-2.975c0.601-0.44,1.224-0.85,1.676-1.431
		c0.295-0.38,0.672-0.715,0.93-1.142c0.257-0.425,0.552-1.13,0.552-1.692c0-0.33,0.027-0.032-0.087-0.26
		C54.727,26.021,54.892,26.902,54.135,26.902z"/>
	<path fill-rule="evenodd" clip-rule="evenodd" fill="#FFFFFF" d="M49.905,61.604c2.234,0,3.883,1.859,3.883,4.057
		c0,1.957-0.613,3.589-2.416,4.402c-1.216,0.55-2.479,0.37-3.625-0.347c-1.221-0.765-2.08-2.703-1.838-4.252
		c0.079-0.499,0.12-0.896,0.282-1.273C46.78,62.814,47.95,61.604,49.905,61.604L49.905,61.604z M42.049,65.92
		c0,1.263,0.255,2.322,0.63,3.253c0.91,2.265,2.913,4.069,5.303,4.536c1.983,0.39,3.118,0.291,5.019-0.464
		c0.228-0.091,0.411-0.18,0.633-0.317l1.17-0.814c0.234-0.197,0.339-0.243,0.563-0.473c0.206-0.213,0.233-0.311,0.43-0.521
		c0.219-0.235,0.261-0.314,0.444-0.591c0.664-0.999,1.26-2.344,1.345-3.576c0.101-1.471,0.02-0.726,0.004-1.813
		c-0.019-1.251-0.896-3.354-1.707-4.25c-0.112-0.124-0.134-0.126-0.245-0.272c-0.56-0.738-1.738-1.532-2.567-1.922
		c-1.83-0.864-4.626-0.968-6.476-0.059c-0.677,0.333-1.89,1.037-2.365,1.606c-0.118,0.142-0.079,0.123-0.18,0.251
		c-0.696,0.877-0.751,0.763-1.336,2.117C42.349,63.455,42.049,64.751,42.049,65.92z"/>
	<path fill-rule="evenodd" clip-rule="evenodd" fill="#FFFFFF" d="M89.18,73.774h8.978c2.217,0,1.813-1.839,1.813-3.626h-6.819
		v-2.503h5.438c0.419,0,0.258-0.628,0.258-1.726c0-0.786-0.085-1.216-0.085-1.986h-5.611v-2.157h5.438
		c0.748,0,1.381-0.422,1.381-1.21v-2.417H89.18V73.774z"/>
	<path fill-rule="evenodd" clip-rule="evenodd" fill="#FFFFFF" d="M19.52,61.948l0.149,0.283c0.075,0.169,0.062,0.139,0.122,0.309
		c0.069,0.198,0.128,0.415,0.221,0.643l0.963,2.489c0.12,0.299,0.418,0.976,0.444,1.283h-3.712L19.52,61.948L19.52,61.948z
		 M11.492,73.774c3.846,0,3.807,0.434,4.8-2.451c0.141-0.41,0.28-0.661,0.379-1.089h5.698l1.196,3.543l3.81-0.003l-3.873-12.27
		c-1.328-3.986-0.244-3.355-6.312-3.355c-0.072,0.15-0.109,0.295-0.162,0.443l-1.601,4.355c-1.056,2.721-2.214,6.309-3.244,8.841
		L11.492,73.774z"/>
	<path fill-rule="evenodd" clip-rule="evenodd" fill="#FFFFFF" d="M59.659,62.726c0,2.8,2.463,3.881,4.782,4.539
		c0.428,0.12,0.732,0.19,1.142,0.327c0.806,0.267,2.664,0.737,2.601,1.944c-0.022,0.406-0.346,0.597-0.721,0.735
		c-0.236,0.087-1.037,0.242-1.325,0.225c-0.322-0.02-0.227-0.069-0.609-0.088c-0.375-0.019-0.407-0.019-0.697-0.08
		c-1.865-0.385-1.515-0.513-2.753-1.045c-1.449-0.619-2.093,0.976-2.766,2.247c1.17,0.782,1.104,1.043,2.775,1.714
		c0.532,0.214,1.163,0.406,1.735,0.509c1.605,0.289,2.968,0.25,4.485-0.133c1.645-0.415,3.229-1.5,3.77-3.136
		c0.345-1.037,0.364-1.773-0.038-2.789c-0.284-0.722-0.933-1.358-0.953-1.377c-0.117-0.108-0.161-0.149-0.271-0.248
		c-2.251-2.001-6.928-1.783-6.928-3.69c0-0.148,0.19-0.394,0.293-0.483c0.855-0.746,2.787-0.562,3.8-0.329
		c1.486,0.341,2.75,1.571,3.591-2.036c-0.528-0.354-0.831-0.521-1.468-0.777c-2.492-1.006-6.924-1.026-8.914,0.928
		C60.422,60.434,59.659,61.525,59.659,62.726z"/>
	<path fill-rule="evenodd" clip-rule="evenodd" fill="#FFFFFF" d="M27.979,65.92c0,1.724,0.675,4.044,1.747,5.158
		c0.479,0.499,0.237,0.387,0.721,0.746c0.979,0.729,0.458,0.559,2.135,1.403c1.949,0.983,4.451,1.005,6.549,0.478
		c0.346-0.087,0.62-0.141,0.965-0.243c0.393-0.117,0.633-0.188,0.917-0.378c0-0.505-0.232-1.348-0.375-1.782
		c-0.623-1.885-1.786-0.722-3.768-0.722c-1.467,0-2.589-0.472-3.345-1.229c-1.67-1.67-1.722-4.658-0.171-6.517
		c1.867-2.236,5.733-0.972,6.02-0.972c0.696,0,1.016-0.442,1.221-1.023c0.155-0.44,0.419-1.23,0.419-1.826
		c0-0.246-1.735-0.659-2.107-0.741c-3.621-0.798-7.31,0.11-9.424,3.021l-0.599,0.956C28.375,63.272,27.979,64.538,27.979,65.92z"/>
	<path fill-rule="evenodd" clip-rule="evenodd" fill="#FFFFFF" d="M73.471,59.186v2.591h4.747v11.998h3.712
		c0.199,0,0.259-0.06,0.259-0.259V61.776h3.107c1.957,0,1.553-1.418,1.553-3.627H75.024C74.309,58.149,73.471,58.505,73.471,59.186z
		"/>
	<path fill-rule="evenodd" clip-rule="evenodd" fill="#FFFFFF" d="M0.01,73.774h9.754c0-4.18,0.777-3.626-5.697-3.626v-8.027
		c0.004-0.634-0.087-1.02-0.086-1.727c0-0.76,0.232-2.245-1.381-2.245H0.01V73.774z"/>
</g>
</svg>
