<?xml version="1.0" encoding="utf-8"?>
<!-- Generator: Adobe Illustrator 16.0.0, SVG Export Plug-In . SVG Version: 6.00 Build 0)  -->
<!DOCTYPE svg PUBLIC "-//W3C//DTD SVG 1.1//EN" "http://www.w3.org/Graphics/SVG/1.1/DTD/svg11.dtd">
<svg version="1.1" id="Layer_1" xmlns="http://www.w3.org/2000/svg" xmlns:xlink="http://www.w3.org/1999/xlink" x="0px" y="0px"
	 width="100px" height="100px" viewBox="0 0 100 100" enable-background="new 0 0 100 100" xml:space="preserve">
<g>
	<path fill-rule="evenodd" clip-rule="evenodd" fill="#FFFFFF" d="M97.845,35.891c-1.063,0-1.919,0.855-1.919,1.909
		c0,1.061,0.856,1.918,1.919,1.918c1.057,0,1.908-0.857,1.908-1.918C99.753,36.746,98.901,35.891,97.845,35.891L97.845,35.891
		L97.845,35.891L97.845,35.891z M97.845,39.487c-0.933,0-1.684-0.751-1.684-1.688c0-0.928,0.751-1.679,1.684-1.679
		c0.927,0,1.678,0.751,1.678,1.679C99.522,38.736,98.771,39.487,97.845,39.487L97.845,39.487L97.845,39.487L97.845,39.487z"/>
	<path fill-rule="evenodd" clip-rule="evenodd" fill="#FFFFFF" d="M98.827,37.298c0-0.18-0.081-0.371-0.24-0.461
		c-0.16-0.095-0.341-0.105-0.521-0.105l0,0h-0.931v2.14h0.26v-0.988h0.48l0.612,0.988h0.309l-0.645-0.988l0,0
		C98.531,37.874,98.827,37.719,98.827,37.298L98.827,37.298L98.827,37.298L98.827,37.298z M97.795,37.678h-0.4v-0.756h0.611l0,0
		c0.266,0,0.557,0.041,0.557,0.371C98.563,37.728,98.096,37.678,97.795,37.678L97.795,37.678L97.795,37.678L97.795,37.678z"/>
	<path fill-rule="evenodd" clip-rule="evenodd" fill="#FFFFFF" d="M33.774,69.36l-12.471-6.089l0,0
		c-0.274-0.143-0.415-0.505-0.41-0.742l0,0l0.032-3.361l0,0c0.005-0.237,0.053-0.48,0.363-0.704c1.333-0.85,5.462-3.134,9.727-9.358
		c5.681-8.291,0-15.256-8.878-13.36c-7.884,1.685-15.912,5.954-19.395,8.275c-3.103,2.068-2.672,4.568-2.758,6.809
		c0.174,0.947,0.519,0.861,1.294-0.085c5.774-5.345,14.566-9.396,16.204-10.085c1.638-0.689,5.516-3.017,10.084-1.982
		c4.39,0.993,3.323,6.96,1.983,9.481c-1.466,2.758-5.646,6.765-7.543,7.756c-0.72,0.377-0.99,0-0.99-0.603l0,0l0.301-12.972l0,0
		c0-0.862-0.388-1.25-1.249-0.948l0,0l-1.38,0.689l0,0c-0.947,0.561-0.904,0.776-0.99,1.466l0,0L17.489,58.5l0,0
		c-0.006,0.324-0.156,0.581-0.334,0.659l0,0l-4.499,2.53l0,0c-1.034,0.518-0.775,1.293,0,1.552l0,0l3.62,1.724l0,0
		c0.862,0.346,1.121,0.604,1.121,1.465l0,0l-0.129,7.24l0,0c3.231-0.646,3.447-2.198,3.533-3.232l0,0V68.24l0,0
		c0.087-0.517,0.388-0.69,0.819-0.604l0,0l10.516,5.087l0,0c0.947,0.43,1.465,0.259,2.154-0.949
		C34.98,70.567,35.067,69.963,33.774,69.36L33.774,69.36L33.774,69.36L33.774,69.36z"/>
	<path fill-rule="evenodd" clip-rule="evenodd" fill="#FFFFFF" d="M52.152,51.093c-1.464,0.844-2.138,2.423-1.563,3.418
		c0.575,0.999,2.313,1.165,3.776,0.32c1.461-0.844,2.094-2.379,1.518-3.376C55.309,50.459,53.614,50.249,52.152,51.093
		L52.152,51.093L52.152,51.093L52.152,51.093z"/>
	<path fill-rule="evenodd" clip-rule="evenodd" fill="#FFFFFF" d="M46.759,52.165c-0.396,0.485-1.162,1.96-1.595,2.865
		c-0.43,0.906-1.334,2.953-2.239,2.953c-0.958,0-1.079-2.37-1.079-3.233c0-0.86-0.517-0.99-0.775-0.946
		c-0.259,0.042-0.99,0.301-1.206,1.206c-0.217,0.904-1.38,4.826-2.673,4.826c-0.818,0-1.422-2.369-1.465-3.103
		c-0.043-0.732-0.388-1.336-1.12-1.336c-0.518,0-1.164,0.259-1.423,0.561c-0.258,0.301-0.302,0.775-1.681,0.475
		c-1.25-0.044-2.456,0.603-3.922,3.059c-0.883,1.48-1.599,4.235-0.258,5.345c1.25,1.034,3.448-0.818,4.094-1.595
		c0.646-0.775,1.206-1.336,1.465-1.767s0.518-0.388,0.646,0.043c0.129,0.432,0.862,2.111,1.811,2.068
		c0.949-0.043,2.154-0.776,3.577-3.275c0.258-0.517,0.646-0.475,0.731-0.044c0.088,0.433,0.647,1.854,1.596,1.854
		c0.905,0,1.912-1.438,2.413-2.284c0.345-0.582,0.862-0.301,0.862,0.259c0,0.561-0.259,13.792-0.259,13.792
		c0,0.604,0.237,0.774,0.668,0.774l0,0h1.875l0,0c0.345,0,0.646-0.301,0.646-0.774l0,0l0.389-21.441l0,0
		C47.837,51.929,47.255,51.562,46.759,52.165L46.759,52.165L46.759,52.165L46.759,52.165z M32.106,60.611
		c-0.389,0.647-1.423,2.372-2.328,2.069c-0.474-0.258,0.159-1.981,0.475-2.586c0.474-0.905,1.864-2.346,2.499-1.982
		C33.355,58.457,32.494,59.966,32.106,60.611L32.106,60.611L32.106,60.611L32.106,60.611z"/>
	<path fill-rule="evenodd" clip-rule="evenodd" fill="#FFFFFF" d="M97.773,47.395c-0.173,0.15-0.453,0.409-1.078,0.13
		c-1.077-0.432-1.164-2.458-1.725-4.311c-0.502-1.665-1.716-1.56-2.154-0.797l0,0l-1.314,2.112l0,0
		c-0.236,0.431-0.755,1.422-1.27,1.422c-0.604,0-0.336-0.863-0.304-1.724c0.022-0.582-0.344-1.314-0.948-1.314
		c-0.688,0-1.422,1.056-1.981,2.262c-0.392,0.844-1.401,4.073-2.672,4.073c-0.82,0-0.905-2.37-0.949-3.103
		c-0.043-0.733-0.302-1.639-1.034-1.639c-0.495,0-0.818,0.26-1.076,0.561c-0.259,0.303-0.303,0.56-1.208,0.431
		c-1.249-0.043-3.317,1.121-4.783,3.577c-0.882,1.479-1.944,4.579-0.604,5.688c1.249,1.035,3.491-1.379,4.138-2.154
		c0.646-0.776,1.206-1.336,1.465-1.766c0.258-0.431,0.518-0.388,0.646,0.042c0.129,0.431,0.862,2.11,1.811,2.068
		c0.948-0.043,1.724-0.259,3.146-2.757c0.258-0.517,0.732-0.582,0.817-0.152c0.087,0.432,0.174,1.572,1.078,1.572
		c1.552,0,3.31-3.772,3.749-4.652c0.388-0.776,1.014-0.561,1.229,0.021c0.309,0.833,0.582,3.513,2.263,3.513
		s2.823-1.789,3.168-2.349C98.57,47.589,98.369,46.873,97.773,47.395L97.773,47.395L97.773,47.395L97.773,47.395z M79.499,49.979
		c-0.388,0.647-1.249,2.069-2.154,1.767c-0.474-0.259,0.114-1.507,0.432-2.11c0.474-0.905,1.863-2.368,2.499-2.005
		C80.879,47.976,79.888,49.333,79.499,49.979L79.499,49.979L79.499,49.979L79.499,49.979z"/>
	<path fill-rule="evenodd" clip-rule="evenodd" fill="#FFFFFF" d="M71.173,47.721c0,0-3.663-2.672-4.697-3.879
		c-0.694-0.81-0.215-1.421,0.216-1.767c2.586-1.724,6.637-4.396,8.232-8.533c1.536-3.988-0.862-7.456-2.587-8.016
		c-2.361-0.768-7.369,0.775-9.869,5.43c-1.619,3.015-2.37,4.008-2.585,12.196c-0.041,1.55-0.087,3.317-0.087,5.257
		c0,1.94-0.216,7.197-0.431,8.188c-0.819,2.326,1.638,0.948,2.758,0.043s1.034-2.264,1.034-2.846c0-0.731,0.044-13.66,0.432-16.547
		c0.24-1.796,0.518-5.128,2.413-8.016c1.896-2.887,3.836-1.724,4.354-1.25c0.517,0.474,1.249,1.681,0.861,4.138
		c-0.602,3.813-4.999,7.973-6.12,9.267c-1.12,1.292-0.861,2.413-0.216,3.317c0.461,0.644,1.595,1.896,2.759,3.06
		c1.163,1.164,1.034,2.198,0.862,2.974c-0.604,2.327-6.896,8.619-6.896,8.619c-1.337,1.423,0.043,3.75,0.517,4.525
		c0.474,0.776,1.078,0.517,1.466-0.129c1.551-2.889,8.23-9.869,8.23-9.869C73.759,51.427,72.94,49.057,71.173,47.721L71.173,47.721
		L71.173,47.721L71.173,47.721z"/>
</g>
</svg>
