<?xml version="1.0" encoding="utf-8"?>
<!-- Generator: Adobe Illustrator 16.0.0, SVG Export Plug-In . SVG Version: 6.00 Build 0)  -->
<!DOCTYPE svg PUBLIC "-//W3C//DTD SVG 1.1//EN" "http://www.w3.org/Graphics/SVG/1.1/DTD/svg11.dtd">
<svg version="1.1" id="Layer_1" xmlns="http://www.w3.org/2000/svg" xmlns:xlink="http://www.w3.org/1999/xlink" x="0px" y="0px"
	 width="100px" height="100px" viewBox="0 0 100 100" enable-background="new 0 0 100 100" xml:space="preserve">
<polygon fill-rule="evenodd" clip-rule="evenodd" fill="#FBFBFB" points="0,0 100,0 100,100 0,100 0,0 "/>
<path fill="#393939" d="M9.882,15.101v35.712l65.2-26.472L54.767,48.479l35.351,7.908v-7.908c-0.208,0.361-0.499,0.64-0.847,0.987
	c-1.058,1.139-2.405,1.695-3.878,1.695c-1.556,0-2.89-0.556-4.029-1.695c-1.126-1.056-1.695-2.39-1.611-3.947
	c-0.084-1.555,0.485-2.891,1.611-4.015c1.14-1.071,2.474-1.625,4.029-1.625c1.473,0,2.82,0.555,3.878,1.625
	c0.348,0.347,0.639,0.695,0.847,1.055V15.101H9.882L9.882,15.101z"/>
<polygon fill="#393939" points="49.818,40.085 35.214,45.449 18.707,74.729 9.882,75.867 9.882,84.9 90.117,84.9 90.117,66.266 
	74.388,67.682 40.718,53.133 49.818,40.085 "/>
</svg>
