<?xml version="1.0" encoding="utf-8"?>
<!-- Generator: Adobe Illustrator 16.0.0, SVG Export Plug-In . SVG Version: 6.00 Build 0)  -->
<!DOCTYPE svg PUBLIC "-//W3C//DTD SVG 1.1//EN" "http://www.w3.org/Graphics/SVG/1.1/DTD/svg11.dtd">
<svg version="1.1" id="Layer_1" xmlns="http://www.w3.org/2000/svg" xmlns:xlink="http://www.w3.org/1999/xlink" x="0px" y="0px"
	 width="100px" height="100px" viewBox="0 0 100 100" enable-background="new 0 0 100 100" xml:space="preserve">
<g>
	<path fill-rule="evenodd" clip-rule="evenodd" fill="#D1D3D4" d="M21.358,24.333l28.634,0.012
		c0.156-0.076,21.29-0.037,24.991-0.034c1.196,0.001,2.423-0.03,3.614,0.006l-0.011,18.856l-28.61-0.003l-28.618,0.004v9.472h57.261
		V14.929c-0.254-0.099-6.341-0.042-7.147-0.042c-16.704,0-33.409,0-50.113,0V24.333z"/>
	<path fill-rule="evenodd" clip-rule="evenodd" fill="#E6E7E8" d="M49.977,43.169l28.61,0.003l0.011-18.856
		c-1.191-0.036-2.418-0.005-3.614-0.006c-3.701-0.003-24.835-0.042-24.991,0.034L49.977,43.169z"/>
	<polygon fill-rule="evenodd" clip-rule="evenodd" fill="#FFFFFF" points="21.358,43.173 49.977,43.169 49.992,24.344 
		21.358,24.333 	"/>
	<path fill-rule="evenodd" clip-rule="evenodd" fill="#FFFFFF" d="M43.338,54.915v12.394h1.817v-9.666
		c0.139,0.092,0.134,0.121,0.231,0.264c0.325,0.48,1.314,1.608,1.652,2.106l1.757,2.252c0.005,0.006,0.014,0.014,0.021,0.02
		c0.008,0.009,0.033,0.033,0.041,0.042c0.048,0.063,0.033,0.019,0.057,0.107h0.373c0.042-0.158,0.758-1.022,0.901-1.203l0.583-0.741
		c0.044-0.05,0.016-0.016,0.061-0.062l0.55-0.689c0.082-0.097,0.155-0.207,0.227-0.312l0.948-1.2
		c0.11-0.147,0.354-0.494,0.489-0.584v9.666h1.818V54.792H53.17l-0.459,0.574c-0.198,0.211-0.356,0.473-0.544,0.695l-0.63,0.773
		c-0.05,0.058-0.084,0.102-0.131,0.158l-2.031,2.557c-0.052,0.064-0.086,0.086-0.138,0.15c-0.038,0.048-0.083,0.124-0.116,0.173
		c-0.12-0.081-0.157-0.168-0.259-0.278c-0.094-0.104-0.172-0.202-0.262-0.317l-3.423-4.302c-0.082-0.109-0.068-0.05-0.104-0.184
		l-1.365-0.002C43.525,54.789,43.338,54.739,43.338,54.915z"/>
	<path fill-rule="evenodd" clip-rule="evenodd" fill="#FFFFFF" d="M64.82,67.309h1.818v-9.666c0.006,0.008,0.016,0.009,0.02,0.021
		c0.003,0.02,0.03,0.036,0.037,0.045c0.016,0.02,0.045,0.053,0.057,0.067l2.336,2.993c0.057,0.067,0.076,0.077,0.136,0.153
		l0.702,0.908c0.092,0.136,0.142,0.161,0.241,0.295c0.083,0.112,0.163,0.207,0.23,0.308h0.33c0.301-0.449,0.807-1.031,1.151-1.492
		l1.722-2.204c0.008-0.009,0.03-0.036,0.037-0.045l0.85-1.05v9.666h1.818V54.792h-1.694c-0.126,0.238-1.118,1.393-1.363,1.735
		l-1.146,1.415c-0.086,0.102-0.154,0.22-0.241,0.337l-0.744,0.908c-0.009,0.009-0.033,0.032-0.042,0.041
		c-0.159,0.17-0.396,0.561-0.513,0.645c-0.107-0.072-0.17-0.184-0.246-0.289l-3.559-4.458c-0.006-0.006-0.015-0.015-0.021-0.021
		c-0.112-0.119-0.185-0.171-0.223-0.313H64.82V67.309z"/>
	<path fill-rule="evenodd" clip-rule="evenodd" fill="#FFFFFF" d="M28.588,65.78c-0.547,0-1.46-0.091-1.941-0.33
		c-0.273-0.137-0.58-0.219-0.927-0.479c-0.66-0.494-0.608-0.408-1.15-1.12c-0.181-0.239-0.306-0.476-0.421-0.734l-0.177-0.404
		c-0.048-0.128-0.028-0.078-0.062-0.226c-0.192-0.839-0.196-0.803-0.196-1.705c0-0.206,0.022-0.299,0.053-0.483
		c0.111-0.649,0.166-0.892,0.45-1.492l0.575-0.871c0.45-0.492,0.989-0.944,1.612-1.196c0.085-0.033,0.096-0.041,0.173-0.074
		c0.373-0.165,1.254-0.343,1.682-0.343c0.957,0,1.396,0.083,2.225,0.417c0.344,0.14,0.802,0.419,1.087,0.648l0.402,0.384
		c0.006,0.006,0.014,0.015,0.02,0.021c0.419,0.463,0.758,1.042,0.972,1.631c0.278,0.767,0.328,1.964,0.129,2.764
		c-0.037,0.15-0.073,0.319-0.125,0.455c-0.212,0.559-0.329,0.83-0.702,1.32c-0.402,0.528-0.973,1.037-1.587,1.306l-0.611,0.256
		C29.557,65.661,29.135,65.78,28.588,65.78L28.588,65.78z M21.813,60.906c0,1.014,0.191,1.883,0.571,2.813
		c0.053,0.13,0.076,0.153,0.123,0.25l0.362,0.63c0.04,0.062,0.037,0.068,0.072,0.134c0.073,0.139,0.073,0.108,0.157,0.215
		l0.545,0.654l0.855,0.712l1.004,0.567c0.108,0.052,0.159,0.061,0.27,0.102c0.088,0.031,0.199,0.083,0.295,0.118
		c0.275,0.104,0.612,0.216,0.911,0.246c0.17,0.018,0.203,0.021,0.364,0.048c1.12,0.19,2.372,0.086,3.434-0.295
		c0.086-0.03,0.066-0.017,0.162-0.043c0.329-0.094,0.668-0.271,0.968-0.437c0.5-0.279,0.956-0.634,1.36-1.037l0.543-0.614
		c0.315-0.351,0.588-0.967,0.788-1.401c0.333-0.72,0.518-1.731,0.518-2.498c0-0.641-0.118-1.437-0.318-2.036
		c-0.126-0.375-0.288-0.779-0.483-1.126l-0.21-0.369c-0.198-0.364-0.508-0.727-0.794-1.024c-0.232-0.241-0.531-0.408-0.773-0.631
		l-0.98-0.59c-0.398-0.21-0.871-0.333-1.31-0.468c-0.289-0.087-1.088-0.199-1.411-0.199c-0.459,0-0.977-0.034-1.422,0.063
		l-0.667,0.119c-0.112,0.027-0.17,0.061-0.283,0.088c-0.499,0.123-0.958,0.324-1.407,0.575c-0.229,0.128-0.52,0.265-0.713,0.444
		c-0.094,0.086-0.132,0.108-0.227,0.187l-1.336,1.515c-0.255,0.347-0.574,1.104-0.688,1.543
		C21.944,59.731,21.813,60.28,21.813,60.906z"/>
	<path fill-rule="evenodd" clip-rule="evenodd" fill="#FFFFFF" d="M59.243,75.694c0,0.377,0.049,0.667,0.106,1.049
		c0.023,0.148,0.023,0.254,0.05,0.365c0.144,0.611,0.343,1.197,0.66,1.733c0.047,0.076,0.019,0.032,0.058,0.108
		c0.179,0.345,0.682,0.999,0.975,1.256c0.781,0.688,1.025,0.832,1.91,1.271c0.146,0.07,0.391,0.169,0.57,0.215
		c0.217,0.057,0.36,0.111,0.618,0.166c0.215,0.045,0.389,0.111,0.671,0.114c0.206,0.003,0.216,0.027,0.373,0.04
		c0.505,0.042,1.706,0.016,2.165-0.063l1.396-0.298c0.133-0.033,0.148-0.053,0.247-0.083l1.52-0.588
		c-0.027-0.051-0.041-0.045-0.041-0.123v-5.164h-4.131v1.652h2.354v2.479c-0.887,0.425-2.842,0.653-3.793,0.405
		c-0.32-0.083-0.636-0.146-0.936-0.264c-0.3-0.118-0.537-0.238-0.79-0.406c-0.42-0.278-0.969-0.716-1.224-1.132l-0.436-0.764
		c-0.019-0.04-0.044-0.079-0.044-0.079c-0.04-0.08-0.011-0.009-0.05-0.116c-0.032-0.09-0.05-0.137-0.076-0.211
		c-0.251-0.697-0.311-1.521-0.206-2.261c0.092-0.65,0.26-1.392,0.665-1.937l0.427-0.566c0.066-0.071,0.015-0.014,0.075-0.089
		l0.413-0.414c0.198-0.184,0.465-0.372,0.709-0.488l1.748-0.565c0.612-0.066,1.439-0.065,2.013,0.063
		c0.104,0.023,0.176,0.044,0.264,0.065c0.107,0.027,0.189,0.03,0.314,0.06l1.588,0.56c1.146,0.505,0.908,0.931,0.908-1.322
		c0-0.119-0.07-0.134-0.157-0.173c-0.071-0.032-0.144-0.052-0.239-0.091l-1.198-0.455c-0.123-0.046-0.098-0.044-0.248-0.083
		c-1.197-0.297-1.79-0.417-3.075-0.354l-1.081,0.158c-0.117,0.028-0.181,0.036-0.305,0.066l-0.612,0.213
		c-0.126,0.052-0.181,0.06-0.3,0.113c-0.735,0.336-1.37,0.742-1.945,1.319l-1.058,1.379c-0.065,0.121-0.092,0.151-0.146,0.268
		c-0.005,0.009-0.009,0.02-0.013,0.028c-0.003,0.009-0.009,0.02-0.014,0.028l-0.222,0.479
		C59.412,74.026,59.243,74.867,59.243,75.694z"/>
	<polygon fill-rule="evenodd" clip-rule="evenodd" fill="#FFFFFF" points="0,81.85 1.859,81.85 1.859,76.437 8.634,76.437 
		8.634,81.85 10.452,81.85 10.452,69.373 8.634,69.373 8.634,74.786 1.859,74.786 1.859,69.373 0,69.373 	"/>
	<path fill-rule="evenodd" clip-rule="evenodd" fill="#FFFFFF" d="M92.211,74.827v-3.883c0.951,0,1.397-0.074,2.257,0.139
		l0.666,0.325c0.103,0.084,0.149,0.151,0.234,0.261c0.578,0.744,0.418,2.122-0.229,2.616C94.046,75.121,92.611,74.661,92.211,74.827
		L92.211,74.827z M90.393,81.85h1.818v-5.37c0.881,0,1.165-0.092,1.832,0.273l0.348,0.272c0.691,0.583,0.945,1.078,1.455,1.768
		l0.101,0.146c0.051,0.08,0.08,0.122,0.132,0.198l0.975,1.546c0.09,0.135,0.155,0.254,0.24,0.381l0.495,0.785h2.148l-0.488-0.752
		c-0.052-0.068-0.079-0.083-0.132-0.156l-0.583-0.862c-0.005-0.009-0.014-0.018-0.019-0.024s-0.013-0.018-0.018-0.023l-0.879-1.436
		c-0.066-0.09-0.069-0.096-0.131-0.2l-0.506-0.774c-0.193-0.316-0.875-1.133-1.188-1.372c-0.132-0.103-0.234-0.224-0.396-0.266V75.9
		c0.222-0.051,0.606-0.301,0.798-0.443c0.784-0.579,1.226-1.613,1.226-2.572c0-0.271-0.063-0.553-0.106-0.802
		c-0.069-0.396-0.042-0.234-0.152-0.55c-0.333-0.946-1.02-1.485-1.913-1.847c-0.084-0.033-0.091-0.047-0.17-0.076
		c-0.428-0.169-1.206-0.237-1.665-0.237h-3.223V81.85z"/>
	<path fill-rule="evenodd" clip-rule="evenodd" fill="#FFFFFF" d="M77.214,81.85h7.23V80.32c0-0.095-0.029-0.125-0.124-0.125h-5.289
		v-3.799h5.041v-1.694h-5.041v-3.677h5.123c0.096,0,0.124-0.028,0.124-0.123v-1.529h-7.064V81.85z"/>
	<path fill-rule="evenodd" clip-rule="evenodd" fill="#FFFFFF" d="M39.165,81.85h1.817v-5.743h4.668
		c0.096,0,0.124-0.028,0.124-0.123v-1.571h-4.792v-3.387h4.792v-1.652h-6.609V81.85z"/>
	<path fill-rule="evenodd" clip-rule="evenodd" fill="#FFFFFF" d="M5.081,56.444h4.132c0.095,0,0.124,0.028,0.124,0.123v10.741
		h1.817V56.444h4.255v-1.652H5.081V56.444z"/>
	<path fill-rule="evenodd" clip-rule="evenodd" fill="#FFFFFF" d="M88.492,60.658v6.65c2.053,0,1.824,0.134,1.818-0.413v-5.908
		c-0.006-0.481,0.017-0.264,0.348-0.726l1.822-2.35c0.006-0.006,0.015-0.017,0.02-0.022l1.207-1.562
		c0.066-0.102,0.149-0.217,0.229-0.308c0.177-0.197,0.313-0.391,0.47-0.604c0.125-0.167,0.396-0.43,0.449-0.625h-2.19
		c-0.038,0.143-0.85,1.141-1.009,1.345L89.47,58.95c-0.09,0.106-0.037,0.066-0.151,0.097c-0.054-0.201-1.207-1.588-1.38-1.843
		l-1.286-1.688c-0.008-0.009-0.03-0.034-0.037-0.044c-0.046-0.053-0.077-0.088-0.112-0.136l-0.405-0.544h-2.149
		c0.062,0.228,0.543,0.733,0.679,0.934l3.188,4.123C88.084,60.145,88.281,60.515,88.492,60.658z"/>
	<polygon fill-rule="evenodd" clip-rule="evenodd" fill="#FFFFFF" points="26.771,81.85 34.125,81.85 34.125,80.195 28.588,80.195 
		28.588,69.373 26.771,69.373 	"/>
	<rect x="51.931" y="69.373" fill-rule="evenodd" clip-rule="evenodd" fill="#FFFFFF" width="1.817" height="12.477"/>
	<rect x="17.765" y="69.373" fill-rule="evenodd" clip-rule="evenodd" fill="#FFFFFF" width="1.817" height="12.477"/>
</g>
</svg>
