<?xml version="1.0" encoding="utf-8"?>
<!-- Generator: Adobe Illustrator 16.0.0, SVG Export Plug-In . SVG Version: 6.00 Build 0)  -->
<!DOCTYPE svg PUBLIC "-//W3C//DTD SVG 1.1//EN" "http://www.w3.org/Graphics/SVG/1.1/DTD/svg11.dtd">
<svg version="1.1" id="Layer_1" xmlns="http://www.w3.org/2000/svg" xmlns:xlink="http://www.w3.org/1999/xlink" x="0px" y="0px"
	 width="100px" height="100px" viewBox="0 0 100 100" enable-background="new 0 0 100 100" xml:space="preserve">
<g>
	<polygon fill="#FFFFFF" points="0.377,35.137 13.535,64.928 16.167,64.928 18.43,58.718 9.219,35.084 	"/>
	<polygon fill="#FFFFFF" points="15.694,46.716 21.063,35.137 28.693,35.137 29.011,35.137 28.964,35.245 19.853,57.084 	"/>
	<rect x="56.201" y="35.083" fill="#FFFFFF" width="6.946" height="29.476"/>
	<rect x="64.938" y="57.717" fill="#FFFFFF" width="9.421" height="6.79"/>
	<rect x="75.99" y="35.083" fill="#FFFFFF" width="6.948" height="29.476"/>
	<polygon fill="#FFFFFF" points="91.412,35.098 83.675,50.238 91.412,64.981 99.623,64.981 91.412,49.92 99.387,35.019 	"/>
	<path fill="#FFFFFF" d="M30.936,35.312l0.106,20.263c0,0-0.086,9.37,10.75,9.192c0-0.021-0.021-6.89-0.021-6.89
		s-4.321-0.078-3.454-7.5V35.141l-7.421,0.04L30.936,35.312z"/>
	<path fill="#FFFFFF" d="M54.306,35.312L54.2,55.575c0,0,0.085,9.37-10.75,9.192c0-0.021,0.02-6.89,0.02-6.89s4.323-0.078,3.453-7.5
		V35.141l7.422,0.04L54.306,35.312z"/>
	<rect x="31.094" y="35.137" fill="#FFFFFF" width="7.264" height="19.265"/>
	<rect x="46.884" y="35.102" fill="#FFFFFF" width="7.264" height="19.089"/>
</g>
</svg>
