<?xml version="1.0" encoding="utf-8"?>
<!-- Generator: Adobe Illustrator 16.0.0, SVG Export Plug-In . SVG Version: 6.00 Build 0)  -->
<!DOCTYPE svg PUBLIC "-//W3C//DTD SVG 1.1//EN" "http://www.w3.org/Graphics/SVG/1.1/DTD/svg11.dtd">
<svg version="1.1" id="Layer_1" xmlns="http://www.w3.org/2000/svg" xmlns:xlink="http://www.w3.org/1999/xlink" x="0px" y="0px"
	 width="200px" height="200px" viewBox="0 0 200 200" enable-background="new 0 0 200 200" xml:space="preserve">
<g>
	<linearGradient id="SVGID_1_" gradientUnits="userSpaceOnUse" x1="6.9443" y1="100.6543" x2="176.9434" y2="100.6543">
		<stop  offset="0" style="stop-color:#000000"/>
		<stop  offset="1" style="stop-color:#FFFFFF;stop-opacity:0"/>
	</linearGradient>
	<path fill="url(#SVGID_1_)" d="M133.861,26.654l41.933,74l-41.933,74H50.025l-41.932-74l41.932-74H133.861 M134.444,25.654H49.442
		l-42.498,75l42.498,75h85.002l42.499-75L134.444,25.654L134.444,25.654z"/>
</g>
<g>
	
		<radialGradient id="SVGID_2_" cx="-62.0947" cy="529.6865" r="25.0962" gradientTransform="matrix(1.6625 0 0 0.1753 261.9561 32.2115)" gradientUnits="userSpaceOnUse">
		<stop  offset="0.01" style="stop-color:#674337"/>
		<stop  offset="0.3781" style="stop-color:#BAA9A3"/>
		<stop  offset="0.602" style="stop-color:#E1DAD8"/>
		<stop  offset="0.8657" style="stop-color:#FFFFFF"/>
	</radialGradient>
	<path fill="url(#SVGID_2_)" d="M200.45,125.066c0,2.429-18.681,4.398-41.726,4.398c-23.048,0-41.728-1.969-41.728-4.398
		c0-2.43,18.68-4.399,41.728-4.399C181.77,120.667,200.45,122.636,200.45,125.066z"/>
	
		<radialGradient id="SVGID_3_" cx="-116.6992" cy="529.6865" r="25.0962" gradientTransform="matrix(1.6625 0 0 0.1753 261.9561 32.2115)" gradientUnits="userSpaceOnUse">
		<stop  offset="0.01" style="stop-color:#674337"/>
		<stop  offset="0.3781" style="stop-color:#BAA9A3"/>
		<stop  offset="0.602" style="stop-color:#E1DAD8"/>
		<stop  offset="0.8657" style="stop-color:#FFFFFF"/>
	</radialGradient>
	<ellipse fill="url(#SVGID_3_)" cx="67.943" cy="125.066" rx="41.726" ry="4.398"/>
	<g>
		<linearGradient id="SVGID_4_" gradientUnits="userSpaceOnUse" x1="78.416" y1="70.5522" x2="78.416" y2="123.0449">
			<stop  offset="0" style="stop-color:#DAD7DC"/>
			<stop  offset="1" style="stop-color:#F0F5F3"/>
		</linearGradient>
		<path fill="url(#SVGID_4_)" d="M101.496,70.552c0,0-26.401,1.609-39.922,7.405c-13.522,5.795-13.686,16.26-11.431,27.368
			c2.254,11.109,6.602,18.029,21.089,17.709c14.488-0.321,22.217-4.831,26.562-13.522c4.347-8.694,9.338-23.828,9.98-30.105
			C107.774,79.406,106.326,74.577,101.496,70.552z"/>
		<linearGradient id="SVGID_5_" gradientUnits="userSpaceOnUse" x1="148.9961" y1="70.5522" x2="148.9961" y2="123.0449">
			<stop  offset="0" style="stop-color:#DAD7DC"/>
			<stop  offset="1" style="stop-color:#F0F5F3"/>
		</linearGradient>
		<path fill="url(#SVGID_5_)" d="M125.915,70.552c0,0,26.401,1.609,39.924,7.405c13.523,5.795,13.685,16.26,11.431,27.368
			c-2.253,11.109-6.6,18.029-21.089,17.709c-14.488-0.321-22.216-4.831-26.563-13.522c-4.347-8.694-9.336-23.828-9.979-30.105
			C119.639,79.406,121.087,74.577,125.915,70.552z"/>
		<g id="XMLID_12_">
			<g>
				<path fill="#131313" d="M181.387,94.851c2.898,3.268,2.378,9.116-1.294,11.854l-0.091-0.017c0.049-0.26,0.108-0.529,0.159-0.789
					c0.738-3.638,1.268-7.402,1.125-11.048H181.387z"/>
				<path fill="#131313" d="M47.303,105.899c0.051,0.269,0.109,0.537,0.169,0.805c-3.673-2.738-4.192-8.585-1.294-11.854
					C46.035,98.497,46.564,102.261,47.303,105.899z"/>
				<path fill="#C4BAAE" d="M117.714,80.611c0,1.066-0.865,1.932-1.932,1.932h-4.1c-1.067,0-1.933-0.866-1.933-1.932v-10.41
					c0.629-0.017,1.276-0.017,1.933-0.017v10.427h4.1V70.193c0.655,0.009,1.303,0.017,1.932,0.034V80.611z"/>
				<path fill="#3B3536" d="M97.795,109.512c4.343-8.696,9.334-23.828,9.98-30.103c0,0-1.444-4.83-6.276-8.855
					c0,0-26.405,1.605-39.922,7.402c-13.526,5.797-13.686,16.265-11.435,27.372c2.252,11.106,6.604,18.028,21.088,17.709
					C85.722,122.709,93.452,118.207,97.795,109.512z M117.714,80.611V70.227c-0.629-0.017-1.276-0.025-1.932-0.034
					c-1.361-0.017-2.739-0.017-4.1-0.008c-0.656,0-1.304,0-1.933,0.017v10.41c0,1.066,0.865,1.932,1.933,1.932h4.1
					C116.849,82.543,117.714,81.677,117.714,80.611z M119.639,79.409c0.646,6.275,5.637,21.407,9.979,30.103
					c4.345,8.695,12.073,13.198,26.566,13.525c14.482,0.318,18.836-6.603,21.086-17.709c2.251-11.107,2.093-21.575-11.433-27.372
					c-13.519-5.796-39.925-7.402-39.925-7.402C121.083,74.579,119.639,79.409,119.639,79.409z M181.286,94.851
					c0.143,3.646-0.387,7.41-1.125,11.048c-0.051,0.259-0.11,0.529-0.159,0.789c-2.177,10.098-6.621,19.257-22.818,19.257
					c-0.337,0-0.673-0.009-1.016-0.017c-15.056-0.328-24.028-5-29.086-15.123c-2.707-5.402-5.402-13.19-7.662-19.87
					c-1.186-3.478-2.79-5.729-5.688-5.729c-2.898,0-4.512,2.251-5.688,5.729c-2.26,6.679-4.957,14.467-7.661,19.87
					c-5.059,10.123-14.029,14.795-29.086,15.123c-0.344,0.007-0.68,0.017-1.017,0.017c-8.309,0-13.526-2.412-16.928-6.117
					c-3.226-3.52-4.831-8.208-5.881-13.123c-0.06-0.269-0.118-0.536-0.169-0.805c-0.738-3.638-1.268-7.402-1.125-11.048
					c0.294-7.737,3.596-14.988,14.257-19.558c13.82-5.923,39.789-7.57,40.889-7.629c5.427-0.402,11.358-0.697,12.409-0.697
					s6.981,0.295,12.408,0.697c1.101,0.059,27.061,1.706,40.889,7.629C177.691,79.862,180.993,87.113,181.286,94.851z"/>
			</g>
		</g>
		<g>
			<linearGradient id="SVGID_6_" gradientUnits="userSpaceOnUse" x1="183.3984" y1="93.481" x2="40.5785" y2="119.8044">
				<stop  offset="0" style="stop-color:#575757"/>
				<stop  offset="1" style="stop-color:#898989"/>
			</linearGradient>
			<path fill="url(#SVGID_6_)" d="M178.28,94.345c0.202,2.848-0.083,5.855-0.622,8.939c-1.757-0.009-8.803-0.05-18.154-0.101h-0.017
				c-5.563-2.143-12.51-3.949-24.581-5.36c-2.504-0.286-7.033-0.688-10.561-0.933c-0.136-0.394-0.278-0.797-0.412-1.192
				C146.852,94.766,174.954,94.395,178.28,94.345z"/>
			<linearGradient id="SVGID_7_" gradientUnits="userSpaceOnUse" x1="183.7422" y1="95.4531" x2="40.9415" y2="121.773">
				<stop  offset="0" style="stop-color:#575757"/>
				<stop  offset="1" style="stop-color:#898989"/>
			</linearGradient>
			<path fill="url(#SVGID_7_)" d="M54.598,121.145l-0.125,0.135c-6.437,6.494-7.981,4.805-10.704,3.2
				c-2.292-1.344-1.765-4.594,5.974-9.669l0.218-0.1c0.874,1.908,1.976,3.67,3.386,5.208
				C53.741,120.346,54.152,120.757,54.598,121.145z"/>
			<linearGradient id="SVGID_8_" gradientUnits="userSpaceOnUse" x1="182.6191" y1="89.2695" x2="39.8025" y2="115.5923">
				<stop  offset="0" style="stop-color:#575757"/>
				<stop  offset="1" style="stop-color:#898989"/>
			</linearGradient>
			<path fill="url(#SVGID_8_)" d="M69.922,103.316c4.176-0.024,8.821-0.05,13.686-0.083c-15.35,4.578-20.575,10.779-26.816,15.954
				c-1.983-1.671-3.419-3.839-4.511-6.419l0.436-0.126c9.031-6.619,13.526-7.88,17.197-9.326H69.922z"/>
		</g>
		<g>
			<linearGradient id="SVGID_9_" gradientUnits="userSpaceOnUse" x1="46.4121" y1="100.2437" x2="191.7398" y2="120.1249">
				<stop  offset="0" style="stop-color:#575757"/>
				<stop  offset="1" style="stop-color:#898989"/>
			</linearGradient>
			<path fill="url(#SVGID_9_)" d="M178.265,112.895c8.065,4.412,8.998,7.553,5.98,9.671c-2.596,1.822-5.09,2.679-10.146-2.639
				c1.854-2.025,3.166-4.427,4.157-7.04L178.265,112.895z"/>
			<linearGradient id="SVGID_10_" gradientUnits="userSpaceOnUse" x1="47.3242" y1="93.4893" x2="192.6645" y2="113.3722">
				<stop  offset="0" style="stop-color:#575757"/>
				<stop  offset="1" style="stop-color:#898989"/>
			</linearGradient>
			<path fill="url(#SVGID_10_)" d="M159.487,103.183h0.017c3.957,1.521,7.216,3.208,11.106,5.025c1.915,0.898,3.881,2.191,5.108,3
				h0.009c-0.975,2.763-2.26,5.116-4.058,6.98c-1.486-1.008-4.42-3.334-6.831-5.351c-10.157-8.494-17.995-10.554-29.422-10.158
				c-1.696,0.059-4.965-0.118-8.921-0.092c-0.74-1.84-1.462-3.764-2.15-5.697c3.527,0.245,8.057,0.647,10.561,0.933
				C146.978,99.234,153.924,101.04,159.487,103.183z"/>
			<linearGradient id="SVGID_11_" gradientUnits="userSpaceOnUse" x1="47.6934" y1="90.7993" x2="193.028" y2="110.6815">
				<stop  offset="0" style="stop-color:#575757"/>
				<stop  offset="1" style="stop-color:#898989"/>
			</linearGradient>
			<path fill="url(#SVGID_11_)" d="M106.442,95.697l7.435,0.428h0.034l7.392,0.421c0.74,2.1,1.506,4.218,2.285,6.26h-19.733
				C104.744,100.494,105.609,98.075,106.442,95.697z"/>
			<linearGradient id="SVGID_12_" gradientUnits="userSpaceOnUse" x1="47.041" y1="95.5288" x2="192.3836" y2="115.4121">
				<stop  offset="0" style="stop-color:#575757"/>
				<stop  offset="1" style="stop-color:#898989"/>
			</linearGradient>
			<path fill="url(#SVGID_12_)" d="M103.468,95.697c-0.832,2.403-1.73,4.822-2.655,7.108c-6.621,0.049-10.644,0.377-17.205,0.428
				c-4.864,0.032-9.51,0.059-13.686,0.083h-0.009c-10.241,0.06-17.575,0.093-17.902,0.093c-0.019,0-2.026,0-2.026,0l-0.218,0.042
				c-0.545-3.1-0.847-6.125-0.655-8.998C49.984,94.462,79.39,94.722,103.468,95.697z"/>
		</g>
		<linearGradient id="SVGID_13_" gradientUnits="userSpaceOnUse" x1="159.2227" y1="59.3052" x2="159.2227" y2="121.1239">
			<stop  offset="0" style="stop-color:#FFFFFF"/>
			<stop  offset="1" style="stop-color:#010101"/>
		</linearGradient>
		<path fill="url(#SVGID_13_)" d="M154.148,76.784c10.705,2.29,21.723,7.639,22.086,17.022c0.362,9.385-2.984,20.871-8.332,24.84
			s-25.718,1.57-25.718,0c0-1.569,18.72-0.347,19.198-12.438c0.477-12.088-11.612-13.16-12.387-15.332
			C148.222,88.703,152.817,76.5,154.148,76.784z"/>
		<linearGradient id="SVGID_14_" gradientUnits="userSpaceOnUse" x1="68.1797" y1="59.3052" x2="68.1797" y2="121.1239">
			<stop  offset="0" style="stop-color:#FFFFFF"/>
			<stop  offset="1" style="stop-color:#010101"/>
		</linearGradient>
		<path fill="url(#SVGID_14_)" d="M73.255,76.784c-10.707,2.29-21.724,7.639-22.087,17.022c-0.361,9.385,2.983,20.871,8.332,24.84
			c5.347,3.969,25.717,1.57,25.717,0c0-1.569-18.72-0.347-19.198-12.438c-0.476-12.088,11.613-13.16,12.387-15.332
			C79.18,88.703,74.585,76.5,73.255,76.784z"/>
		<path fill="#E0DEDE" d="M71.232,122.99c2.635-0.165,5.26-0.471,7.826-1.006c2.56-0.544,5.09-1.228,7.433-2.328
			c2.348-1.08,4.478-2.556,6.296-4.341c1.813-1.796,3.257-3.946,4.377-6.26c2.234-4.721,4.194-9.613,5.93-14.575
			c0.87-2.48,1.646-4.992,2.419-7.501c0.74-2.513,1.453-5.059,1.806-7.618l0.018,0.178c-0.251-0.813-0.613-1.659-0.995-2.465
			c-0.394-0.809-0.837-1.597-1.335-2.352c-0.99-1.515-2.183-2.907-3.537-4.134l0.057-0.069c1.409,1.174,2.67,2.528,3.736,4.02
			c1.062,1.495,1.97,3.107,2.568,4.852l0.004,0.01l-0.002,0.012c-0.299,2.634-0.956,5.203-1.641,7.753
			c-0.701,2.548-1.489,5.071-2.334,7.574c-1.709,4.998-3.588,9.95-5.932,14.694c-1.172,2.371-2.69,4.59-4.592,6.44
			c-1.896,1.855-4.161,3.313-6.589,4.362c-4.888,2.101-10.249,2.716-15.511,2.844L71.232,122.99z"/>
		<path fill="#131313" d="M101.501,70.619c-4.325,0.555-8.642,1.105-12.928,1.837c-4.294,0.662-8.569,1.425-12.79,2.388
			c-4.2,1.003-8.415,2.003-12.377,3.567c-3.931,1.528-7.635,3.744-10.018,7.028c-2.477,3.217-3.337,7.426-3.209,11.616
			c0.05,2.104,0.311,4.224,0.668,6.337c0.379,2.115,0.777,4.222,1.351,6.263c0.576,2.038,1.337,4.018,2.432,5.787
			c1.089,1.769,2.546,3.292,4.304,4.417c1.741,1.152,3.764,1.907,5.856,2.368c2.099,0.456,4.266,0.661,6.442,0.74l0.002,0.134
			c-2.179,0.046-4.37-0.05-6.523-0.436c-2.146-0.382-4.264-1.067-6.145-2.199c-1.884-1.123-3.477-2.71-4.672-4.543
			c-1.202-1.834-2.045-3.877-2.693-5.958c-0.65-2.087-1.107-4.225-1.498-6.37c-0.386-2.147-0.674-4.316-0.745-6.503
			c-0.073-2.182,0.074-4.387,0.599-6.519c0.521-2.129,1.442-4.17,2.752-5.935c2.638-3.563,6.604-5.837,10.66-7.374
			c4.087-1.546,8.338-2.578,12.607-3.449c8.554-1.693,17.226-2.716,25.916-3.332L101.501,70.619z"/>
		<path fill="#1E1D1D" d="M156.18,123.079c-5.262-0.128-10.624-0.743-15.511-2.844c-2.429-1.049-4.693-2.507-6.59-4.362
			c-1.9-1.85-3.42-4.068-4.593-6.44c-2.342-4.744-4.221-9.696-5.929-14.694c-0.847-2.502-1.636-5.025-2.336-7.574
			c-0.683-2.55-1.342-5.119-1.641-7.753l-0.002-0.012l0.004-0.011c0.598-1.745,1.507-3.357,2.567-4.852
			c1.067-1.492,2.327-2.846,3.736-4.021l0.059,0.069c-1.357,1.228-2.548,2.62-3.539,4.134c-0.497,0.755-0.941,1.542-1.335,2.352
			c-0.38,0.806-0.743,1.652-0.994,2.465l0.017-0.178c0.354,2.56,1.067,5.105,1.807,7.618c0.773,2.509,1.549,5.021,2.42,7.502
			c1.735,4.961,3.692,9.854,5.929,14.576c1.119,2.314,2.563,4.462,4.378,6.259c1.817,1.785,3.947,3.262,6.295,4.341
			c2.342,1.1,4.875,1.784,7.434,2.328c2.566,0.535,5.191,0.841,7.826,1.006L156.18,123.079z"/>
		<path fill="#E0DEDE" d="M125.917,70.508c8.69,0.618,17.361,1.645,25.912,3.341c4.268,0.873,8.52,1.906,12.602,3.453
			c4.052,1.537,8.009,3.81,10.638,7.363c1.309,1.76,2.228,3.794,2.748,5.918c0.523,2.127,0.671,4.328,0.602,6.508
			c-0.072,2.183-0.358,4.352-0.743,6.497c-0.389,2.144-0.845,4.281-1.493,6.366c-0.647,2.08-1.489,4.121-2.688,5.952
			c-1.193,1.831-2.781,3.415-4.662,4.536c-1.876,1.131-3.989,1.816-6.135,2.198c-2.15,0.386-4.341,0.484-6.518,0.438l0.002-0.089
			c2.175-0.018,4.352-0.18,6.467-0.625c2.108-0.44,4.16-1.178,5.94-2.327c1.795-1.124,3.294-2.663,4.414-4.452
			c1.128-1.789,1.913-3.787,2.513-5.838c0.598-2.054,1.016-4.172,1.396-6.295c0.366-2.123,0.634-4.258,0.689-6.387
			c0.056-2.126-0.104-4.25-0.616-6.276c-0.51-2.025-1.392-3.937-2.638-5.591c-2.459-3.369-6.242-5.602-10.21-7.134
			c-4-1.557-8.224-2.57-12.446-3.531c-4.235-0.93-8.523-1.66-12.826-2.286c-4.299-0.667-8.617-1.231-12.953-1.651L125.917,70.508z"
			/>
		<g>
			<polygon fill="#D8D6CE" points="116.172,81.062 111.169,81.062 111.169,70.109 112.066,70.109 112.066,80.164 115.275,80.164 
				115.275,70.109 116.172,70.109 			"/>
		</g>
		<path fill="#7D7977" d="M46.153,94.877c-0.489,1.035-0.802,2.032-0.972,3.046c-0.156,1.012-0.194,2.029-0.073,3.029
			c0.097,1.005,0.354,1.988,0.728,2.944c0.386,0.953,0.912,1.86,1.602,2.771l-0.055,0.073c-1.81-1.325-2.915-3.475-3.165-5.69
			c-0.233-2.21,0.366-4.562,1.866-6.231L46.153,94.877z"/>
		<path fill="#7D7977" d="M181.358,94.819c1.5,1.669,2.1,4.021,1.867,6.231c-0.252,2.215-1.356,4.365-3.166,5.69l-0.054-0.073
			c0.689-0.911,1.217-1.818,1.602-2.772c0.373-0.955,0.632-1.939,0.727-2.943c0.123-1,0.084-2.017-0.072-3.029
			c-0.17-1.015-0.48-2.011-0.972-3.046L181.358,94.819z"/>
		<path fill="#131313" d="M113.673,85.269c-1.367-0.031-2.68,0.621-3.541,1.668c-0.882,1.035-1.447,2.302-1.911,3.579
			c-0.881,2.591-1.753,5.19-2.673,7.77c-0.919,2.582-1.872,5.152-2.916,7.688c-1.058,2.528-2.137,5.058-3.595,7.402
			c-1.461,2.331-3.284,4.447-5.443,6.159c-2.152,1.722-4.606,3.039-7.184,3.988c-5.178,1.899-10.727,2.434-16.194,2.486v-0.135
			c2.732-0.28,5.45-0.553,8.105-1.119c2.661-0.487,5.272-1.183,7.725-2.209c2.435-1.049,4.774-2.287,6.781-3.963
			c2.021-1.654,3.711-3.679,5.071-5.918c1.395-2.172,2.527-4.687,3.602-7.158c1.087-2.487,2.01-5.05,3.062-7.572
			c1.025-2.538,1.987-5.08,2.99-7.658c0.563-1.287,1.229-2.579,2.243-3.63c0.504-0.519,1.106-0.963,1.781-1.23
			c0.679-0.263,1.404-0.339,2.093-0.281L113.673,85.269z"/>
		<path fill="#7D7977" d="M156.104,125.974c-5.377-0.123-10.834-0.761-15.875-2.758c-2.51-1-4.883-2.367-6.947-4.119
			c-2.07-1.747-3.813-3.863-5.206-6.179c-1.381-2.331-2.442-4.82-3.476-7.313c-1.02-2.498-1.956-5.029-2.859-7.569
			c-0.906-2.541-1.764-5.1-2.637-7.648c-0.464-1.255-1.033-2.501-1.915-3.515c-0.862-1.026-2.169-1.658-3.518-1.628v-0.089
			c0.678-0.039,1.38,0.051,2.029,0.315c0.649,0.268,1.227,0.699,1.709,1.206c0.972,1.023,1.606,2.284,2.138,3.548l2.848,7.575
			c0.991,2.503,1.913,5.027,2.961,7.495c1.046,2.46,2.133,4.928,3.488,7.159c1.329,2.257,2.986,4.313,4.967,6.019
			c1.968,1.722,4.268,3.029,6.68,4.093c2.423,1.048,5.002,1.768,7.628,2.262c2.623,0.548,5.297,0.819,7.988,1.056L156.104,125.974z"
			/>
		<path fill="#131313" d="M176.948,82.346c1.562,1.933,2.738,4.184,3.436,6.573c0.71,2.389,0.979,4.891,0.962,7.375
			c-0.01,2.488-0.3,4.965-0.712,7.413c-0.427,2.446-0.93,4.883-1.665,7.262c-0.746,2.371-1.73,4.689-3.126,6.76
			c-1.388,2.072-3.211,3.863-5.351,5.151c-2.131,1.302-4.527,2.116-6.967,2.58c-2.446,0.463-4.941,0.596-7.422,0.537l0.003-0.135
			c2.477-0.203,4.936-0.455,7.283-1.097c2.354-0.569,4.614-1.456,6.559-2.775c1.929-1.332,3.617-2.963,4.878-4.942
			c1.275-1.964,2.179-4.181,2.859-6.479c0.74-2.28,1.283-4.669,1.74-7.069c0.465-2.395,0.718-4.807,0.873-7.212
			c0.127-2.406-0.027-4.827-0.599-7.167c-0.49-2.368-1.514-4.604-2.86-6.692L176.948,82.346z"/>
		<path fill="#7D7977" d="M70.216,125.986c-3.976-0.004-8.042-0.533-11.676-2.249c-1.808-0.855-3.475-2.019-4.877-3.446
			c-1.408-1.425-2.544-3.102-3.442-4.885c-1.797-3.586-2.699-7.528-3.41-11.446c-0.69-3.922-1.074-7.955-0.509-11.927
			c0.285-1.979,0.818-3.929,1.652-5.75c0.831-1.823,1.969-3.501,3.328-4.97c2.735-2.947,6.291-4.995,9.988-6.476
			c3.716-1.477,7.587-2.509,11.479-3.383c3.898-0.865,7.833-1.545,11.785-2.117c3.949-0.565,7.915-1.021,11.891-1.382
			c3.975-0.354,7.957-0.6,11.941-0.829c1.993-0.089,3.98-0.252,5.984-0.217c1.994,0.073,3.987,0.184,5.979,0.299
			c3.982,0.246,7.964,0.501,11.936,0.89c7.939,0.79,15.864,1.882,23.643,3.684c3.88,0.922,7.74,2.005,11.405,3.607
			c3.645,1.598,7.094,3.842,9.616,6.968l-0.07,0.056c-2.56-3.07-6.017-5.238-9.661-6.768c-3.659-1.53-7.521-2.548-11.397-3.404
			c-7.765-1.715-15.677-2.739-23.601-3.451c-1.982-0.173-3.968-0.326-5.947-0.44l-5.968-0.369c-1.987-0.108-3.981-0.212-5.959-0.278
			c-1.9-0.028-3.942,0.141-5.915,0.236c-3.973,0.241-7.954,0.5-11.909,0.867c-3.958,0.373-7.909,0.84-11.841,1.417
			c-3.934,0.559-7.851,1.22-11.725,2.067c-3.866,0.853-7.708,1.866-11.362,3.304c-3.63,1.44-7.085,3.422-9.722,6.245
			c-2.648,2.805-4.293,6.447-4.859,10.292c-0.586,3.853-0.253,7.83,0.397,11.725c0.668,3.901,1.532,7.803,3.255,11.335
			c0.852,1.762,1.934,3.418,3.288,4.834c1.349,1.417,2.961,2.584,4.729,3.455c3.551,1.749,7.586,2.348,11.555,2.415L70.216,125.986z
			"/>
		<path fill="#131313" d="M101.43,70.485c1.99-0.649,4.043-1.011,6.084-1.214c2.042-0.229,4.09-0.291,6.136-0.305
			c2.045,0.03,4.089,0.108,6.13,0.345c2.038,0.208,4.079,0.575,6.081,1.174l-0.011,0.134c-4.061-0.271-8.136-0.303-12.206-0.308
			c-2.034-0.017-4.071-0.016-6.105,0.021c-2.034,0.042-4.07,0.092-6.095,0.287L101.43,70.485z"/>
		<path fill="#131313" d="M117.689,70.109c0.129,1.299,0.185,2.599,0.28,3.898l0.159,3.897c0.029,0.649,0.053,1.299,0.055,1.949
			c-0.002,0.34,0.021,0.616-0.002,1.008c-0.048,0.463-0.188,0.834-0.43,1.187c-0.457,0.694-1.35,1.114-2.132,1.077l-1.95,0.025
			l-1.947-0.026c-0.781,0.038-1.679-0.383-2.133-1.076c-0.24-0.341-0.384-0.749-0.429-1.161c-0.018-0.223-0.011-0.391-0.008-0.545
			l0.005-0.488c0.002-0.649,0.027-1.299,0.057-1.949l0.159-3.897c0.094-1.299,0.149-2.599,0.278-3.898h0.067l0.018,7.795
			l0.003,1.949c0.007,0.322-0.011,0.656,0.015,0.968c0.038,0.312,0.149,0.618,0.335,0.873c0.363,0.519,0.996,0.823,1.633,0.788
			l1.947-0.004l1.95,0.004c0.636,0.035,1.267-0.269,1.631-0.788c0.187-0.254,0.297-0.563,0.335-0.871
			c0.026-0.316,0.009-0.646,0.014-0.97l0.006-1.949l0.016-7.795H117.689z"/>
	</g>
</g>
</svg>
