<?xml version="1.0" encoding="utf-8"?>
<!-- Generator: Adobe Illustrator 16.0.0, SVG Export Plug-In . SVG Version: 6.00 Build 0)  -->
<!DOCTYPE svg PUBLIC "-//W3C//DTD SVG 1.1//EN" "http://www.w3.org/Graphics/SVG/1.1/DTD/svg11.dtd">
<svg version="1.1" id="Layer_1" xmlns="http://www.w3.org/2000/svg" xmlns:xlink="http://www.w3.org/1999/xlink" x="0px" y="0px"
	 width="200px" height="200px" viewBox="0 0 200 200" enable-background="new 0 0 200 200" xml:space="preserve">
<g>
	<g>
		
			<radialGradient id="SVGID_1_" cx="54.5332" cy="574.9678" r="28.1489" gradientTransform="matrix(1.1258 0 0 0.1753 21.9325 32.2115)" gradientUnits="userSpaceOnUse">
			<stop  offset="0.01" style="stop-color:#674337"/>
			<stop  offset="0.3433" style="stop-color:#BAA9A3"/>
			<stop  offset="0.5672" style="stop-color:#E1DAD8"/>
			<stop  offset="0.8657" style="stop-color:#FFFFFF"/>
		</radialGradient>
		<ellipse fill="url(#SVGID_1_)" cx="83.326" cy="133.003" rx="31.695" ry="4.934"/>
		
			<radialGradient id="SVGID_2_" cx="123.9072" cy="574.9678" r="28.1489" gradientTransform="matrix(1.1258 0 0 0.1753 21.9325 32.2115)" gradientUnits="userSpaceOnUse">
			<stop  offset="0.01" style="stop-color:#674337"/>
			<stop  offset="0.3433" style="stop-color:#BAA9A3"/>
			<stop  offset="0.5672" style="stop-color:#E1DAD8"/>
			<stop  offset="0.8657" style="stop-color:#FFFFFF"/>
		</radialGradient>
		<ellipse fill="url(#SVGID_2_)" cx="161.427" cy="133.003" rx="31.696" ry="4.934"/>
		<g>
			<linearGradient id="SVGID_3_" gradientUnits="userSpaceOnUse" x1="190.502" y1="102.7397" x2="193.0605" y2="102.7397">
				<stop  offset="0" style="stop-color:#010101"/>
				<stop  offset="0.1891" style="stop-color:#676767"/>
				<stop  offset="0.3781" style="stop-color:#686969"/>
				<stop  offset="0.7114" style="stop-color:#9B9B9B"/>
			</linearGradient>
			<path fill="url(#SVGID_3_)" d="M190.502,97.989c0.258,1.592,0.391,3.225,0.391,4.889c0,1.57-0.119,3.113-0.35,4.619l0.045,0.008
				c0.113,0.016,0.23,0.023,0.352,0.023l0,0c1.17,0,2.121-0.728,2.121-1.625v-6.328c0-0.896-0.951-1.623-2.121-1.623l0,0
				c-0.135,0-0.268,0.008-0.395,0.026L190.502,97.989z"/>
			<linearGradient id="SVGID_4_" gradientUnits="userSpaceOnUse" x1="50.9023" y1="102.7397" x2="53.417" y2="102.7397">
				<stop  offset="0.2886" style="stop-color:#9B9B9B"/>
				<stop  offset="0.6219" style="stop-color:#686969"/>
				<stop  offset="0.8109" style="stop-color:#676767"/>
				<stop  offset="1" style="stop-color:#010101"/>
			</linearGradient>
			<path fill="url(#SVGID_4_)" d="M53.417,97.978c-0.128-0.019-0.259-0.026-0.394-0.026l0,0c-1.172,0-2.121,0.727-2.121,1.623v6.328
				c0,0.897,0.949,1.625,2.121,1.625l0,0c0.119,0,0.236-0.008,0.351-0.023c-0.231-1.509-0.351-3.055-0.351-4.627
				C53.023,101.209,53.158,99.574,53.417,97.978z"/>
			<g>
				<linearGradient id="SVGID_5_" gradientUnits="userSpaceOnUse" x1="112.4697" y1="99.7559" x2="131.4478" y2="99.7559">
					<stop  offset="0" style="stop-color:#010101"/>
					<stop  offset="0.1393" style="stop-color:#616161"/>
					<stop  offset="0.3582" style="stop-color:#6E6D6E"/>
					<stop  offset="0.5124" style="stop-color:#878787"/>
					<stop  offset="0.6816" style="stop-color:#717171"/>
					<stop  offset="0.8458" style="stop-color:#5E5F5F"/>
					<stop  offset="1" style="stop-color:#010101"/>
				</linearGradient>
				<path fill="url(#SVGID_5_)" d="M131.448,93.432c-2.584-1.163-6.917-1.976-9.625-1.976s-6.771,0.812-9.354,1.976
					c0.972,2.975,1.498,6.149,1.498,9.445c0,1.765-0.151,3.494-0.44,5.178c0.895-0.002,1.888-1.162,3.602-5.178
					c1.715-4.018,3.34-4.649,4.694-4.649s2.979,0.632,4.695,4.649c1.715,4.018,2.977,5.178,3.871,5.178
					c-0.289-1.684-0.439-3.413-0.439-5.178C129.95,99.582,130.475,96.407,131.448,93.432z"/>
			</g>
			<path fill="#1C1820" d="M160.422,133.351c-16.803,0-30.472-13.67-30.472-30.473c0-16.803,13.669-30.473,30.472-30.473
				c16.801,0,30.471,13.67,30.471,30.473C190.893,119.681,177.223,133.351,160.422,133.351z"/>
			<path fill="#1C1820" d="M83.496,133.351c-16.803,0-30.473-13.67-30.473-30.473c0-16.803,13.67-30.473,30.473-30.473
				c16.801,0,30.472,13.67,30.472,30.473C113.968,119.681,100.297,133.351,83.496,133.351z"/>
			<linearGradient id="SVGID_6_" gradientUnits="userSpaceOnUse" x1="83.3604" y1="75.5171" x2="83.3604" y2="129.9619">
				<stop  offset="0" style="stop-color:#DAD7DC"/>
				<stop  offset="1" style="stop-color:#F0F5F3"/>
			</linearGradient>
			<circle fill="url(#SVGID_6_)" cx="83.36" cy="102.739" r="27.222"/>
			<linearGradient id="SVGID_7_" gradientUnits="userSpaceOnUse" x1="160.2861" y1="75.5171" x2="160.2861" y2="129.9619">
				<stop  offset="0" style="stop-color:#DAD7DC"/>
				<stop  offset="1" style="stop-color:#F0F5F3"/>
			</linearGradient>
			<circle fill="url(#SVGID_7_)" cx="160.286" cy="102.739" r="27.221"/>
			<path fill="#989898" d="M121.823,98.228c-1.354,0-2.979,0.632-4.694,4.649c0,0,1.646-2.302,4.694-2.302
				c3.047,0,4.695,2.302,4.695,2.302C124.803,98.86,123.178,98.228,121.823,98.228z"/>
			<g id="XMLID_1_">
				<g>
					<linearGradient id="SVGID_8_" gradientUnits="userSpaceOnUse" x1="38.0527" y1="126.0225" x2="371.1318" y2="73.614">
						<stop  offset="0" style="stop-color:#413C41"/>
						<stop  offset="1" style="stop-color:#102221"/>
					</linearGradient>
					<path fill="url(#SVGID_8_)" d="M61.94,124.108c-6.655,6.715-8.396,5.189-11.072,3.311c-3.122-2.191-2.159-5.441,6.179-10.002
						C58.27,119.681,60.197,122.237,61.94,124.108z"/>
					
						<linearGradient id="SVGID_9_" gradientUnits="userSpaceOnUse" x1="-460.3926" y1="126.0225" x2="-127.3391" y2="73.6181" gradientTransform="matrix(-1 0 0 1 -254.166 0)">
						<stop  offset="0" style="stop-color:#413C41"/>
						<stop  offset="1" style="stop-color:#102221"/>
					</linearGradient>
					<path fill="url(#SVGID_9_)" d="M182.34,124.108c6.654,6.715,8.395,5.189,11.072,3.311c3.121-2.191,2.158-5.441-6.18-10.002
						C186.01,119.681,184.084,122.237,182.34,124.108z"/>
					<linearGradient id="SVGID_10_" gradientUnits="userSpaceOnUse" x1="50.5215" y1="117.833" x2="189.5684" y2="95.9546">
						<stop  offset="0" style="stop-color:#413C41"/>
						<stop  offset="1" style="stop-color:#102221"/>
					</linearGradient>
					<path fill="url(#SVGID_10_)" d="M89.705,107.423c-6.433,1.233-12.215,4.136-18.998,9.791c-2.646,2.211-4.678,3.764-6.262,4.816
						c-1.945-1.977-3.604-4.252-4.869-6.75c1.318-0.904,3.02-1.85,5.156-2.85c3.807-1.775,7.017-3.424,10.812-4.922h0.011
						C79.871,107.487,84.676,107.456,89.705,107.423z"/>
					<linearGradient id="SVGID_11_" gradientUnits="userSpaceOnUse" x1="50.9834" y1="120.7734" x2="190.028" y2="98.8954">
						<stop  offset="0" style="stop-color:#413C41"/>
						<stop  offset="1" style="stop-color:#102221"/>
					</linearGradient>
					<path fill="url(#SVGID_11_)" d="M187.027,98.228c0.287,1.542,0.424,3.126,0.424,4.751c0,1.531-0.127,3.041-0.371,4.498
						c-1.594-0.012-9.004-0.054-18.891-0.106h-0.011c-5.751-2.212-12.938-4.083-25.429-5.539c-2.582-0.298-5.793-0.585-9.439-0.839
						c0.032-0.437,0.075-0.873,0.128-1.309C157.134,98.717,183.582,98.281,187.027,98.228z"/>
					<linearGradient id="SVGID_12_" gradientUnits="userSpaceOnUse" x1="47.9834" y1="94.9995" x2="194.981" y2="116.8776">
						<stop  offset="0" style="stop-color:#102221"/>
						<stop  offset="1" style="stop-color:#413C41"/>
					</linearGradient>
					<path fill="url(#SVGID_12_)" d="M184.539,115.215c-1.264,2.499-2.912,4.784-4.857,6.762c-1.541-1.043-3.477-2.541-5.975-4.625
						c-10.504-8.781-18.604-10.907-30.425-10.503c-1.871,0.063-5.294,0.128-9.748,0.191c-0.191-1.318-0.298-2.679-0.298-4.062
						c0-0.669,0.021-1.328,0.074-1.986c3.646,0.254,6.857,0.541,9.439,0.839c12.491,1.456,19.678,3.327,25.429,5.539h0.011
						c4.092,1.573,7.463,3.316,11.492,5.198C181.658,113.493,183.264,114.375,184.539,115.215z"/>
					<linearGradient id="SVGID_13_" gradientUnits="userSpaceOnUse" x1="48.2129" y1="93.4717" x2="195.2085" y2="115.3494">
						<stop  offset="0" style="stop-color:#102221"/>
						<stop  offset="1" style="stop-color:#413C41"/>
					</linearGradient>
					<path fill="url(#SVGID_13_)" d="M126.583,102.979c0.861,2.031,1.541,3.328,2.115,4.115c-4.115,0.053-8.77,0.096-13.704,0.138
						c0.596-0.765,1.307-2.104,2.232-4.253c0,0,1.637-2.295,4.678-2.295C124.934,100.684,126.583,102.979,126.583,102.979z"/>
					<linearGradient id="SVGID_14_" gradientUnits="userSpaceOnUse" x1="47.4912" y1="98.2944" x2="194.4938" y2="120.1732">
						<stop  offset="0" style="stop-color:#102221"/>
						<stop  offset="1" style="stop-color:#413C41"/>
					</linearGradient>
					<path fill="url(#SVGID_14_)" d="M89.705,107.423c-5.029,0.032-9.834,0.063-14.15,0.085h-0.011
						c-10.588,0.064-18.179,0.096-18.519,0.096c-0.01,0-0.01,0-0.01,0c-0.256-1.5-0.394-3.051-0.394-4.625
						c0-1.583,0.138-3.135,0.403-4.635c0.66,0.011,28.618,0.447,53.621,1.457c0.127,1.041,0.191,2.104,0.191,3.178
						c0,1.469-0.117,2.902-0.34,4.295C103.65,107.328,96.486,107.371,89.705,107.423z"/>
				</g>
			</g>
			<path fill="#404040" d="M110.793,102.877c0.044,7.157-2.899,14.27-7.982,19.315c-5.037,5.092-12.145,8.053-19.316,8.02
				c-7.165,0.045-14.287-2.902-19.34-7.992c-5.099-5.043-8.063-12.163-8.03-19.342c-0.032-7.178,2.931-14.297,8.03-19.341
				c5.053-5.09,12.172-8.038,19.341-7.993c7.169-0.032,14.278,2.928,19.315,8.02C107.894,88.608,110.837,95.719,110.793,102.877z
				 M110.643,102.877c-0.024-7.121-3.018-14.133-8.082-19.064c-5.064-4.948-12.119-7.637-19.065-7.447
				c-3.473,0.078-6.911,0.838-10.057,2.23c-3.153,1.383-5.987,3.414-8.37,5.855c-4.812,4.858-7.545,11.637-7.447,18.426
				c-0.088,6.789,2.638,13.567,7.451,18.424c2.389,2.434,5.215,4.471,8.369,5.852c3.149,1.393,6.573,2.152,10.063,2.23
				c6.927,0.191,13.992-2.498,19.056-7.441C107.625,117.009,110.618,110,110.643,102.877z"/>
			<path fill="#404040" d="M141.119,122.179c-5.092-5.029-8.04-12.139-8.013-19.301c-0.039-7.162,2.893-14.281,7.987-19.329
				c5.035-5.099,12.156-8.05,19.327-8.023c7.172-0.039,14.303,2.899,19.355,7.998c5.098,5.053,8.037,12.183,7.998,19.354
				c0.025,7.172-2.924,14.292-8.025,19.329c-5.045,5.092-12.165,8.027-19.327,7.988C153.259,130.22,146.149,127.272,141.119,122.179
				z M141.226,122.073c5.053,5.02,12.126,7.861,19.195,7.768c7.079-0.082,13.97-3.172,18.747-8.217
				c2.4-2.51,4.293-5.479,5.533-8.688c1.252-3.208,1.82-6.648,1.777-10.059c-0.031-6.838-2.893-13.564-7.762-18.296
				c-4.738-4.862-11.457-7.728-18.297-7.759c-3.408-0.031-6.848,0.527-10.055,1.781c-3.212,1.242-6.171,3.125-8.694,5.537
				c-5.032,4.764-8.127,11.66-8.21,18.736C133.367,109.948,136.206,117.021,141.226,122.073z"/>
			<linearGradient id="SVGID_15_" gradientUnits="userSpaceOnUse" x1="103.418" y1="58.5747" x2="103.418" y2="118.8935">
				<stop  offset="0" style="stop-color:#FFFFFF"/>
				<stop  offset="1" style="stop-color:#010101"/>
			</linearGradient>
			<path fill="url(#SVGID_15_)" d="M104.462,117.351c-1.11,1.682-2.501,1.334-1.639-0.699c1.411-3.667,2.185-7.649,2.185-11.812
				c0-7.395-1.619-12.444-5.475-18.624c-2.813-4.512-2.221-5.113,0.408-2.924c5.898,4.913,9.215,11.607,9.215,19.445
				C109.156,111.229,104.462,117.351,104.462,117.351z"/>
			<linearGradient id="SVGID_16_" gradientUnits="userSpaceOnUse" x1="140.6143" y1="58.5742" x2="140.6143" y2="118.8937">
				<stop  offset="0" style="stop-color:#FFFFFF"/>
				<stop  offset="1" style="stop-color:#010101"/>
			</linearGradient>
			<path fill="url(#SVGID_16_)" d="M139.57,117.353c1.11,1.68,2.5,1.334,1.639-0.699c-1.411-3.667-2.186-7.651-2.186-11.813
				c0-7.395,1.621-12.443,5.475-18.624c2.813-4.512,2.223-5.113-0.407-2.924c-5.898,4.914-9.216,11.607-9.216,19.446
				C134.875,111.23,139.57,117.353,139.57,117.353z"/>
			<linearGradient id="SVGID_17_" gradientUnits="userSpaceOnUse" x1="68.9321" y1="60.7734" x2="68.9321" y2="126.7765">
				<stop  offset="0" style="stop-color:#FFFFFF"/>
				<stop  offset="1" style="stop-color:#010101"/>
			</linearGradient>
			<path fill="url(#SVGID_17_)" d="M74.846,126.528c2.867,0.719,5.167-0.516,4.543-1.539c-4.561-7.484-9.842-14.277-9.842-23.466
				c0-9.122,3.712-17.376,9.709-23.337c-11.855,2.017-20.883,12.331-20.883,24.76C58.373,113.778,67.051,124.571,74.846,126.528z"/>
			<linearGradient id="SVGID_18_" gradientUnits="userSpaceOnUse" x1="168.8428" y1="60.7725" x2="168.8428" y2="126.7769">
				<stop  offset="0" style="stop-color:#FFFFFF"/>
				<stop  offset="1" style="stop-color:#010101"/>
			</linearGradient>
			<path fill="url(#SVGID_18_)" d="M154.504,127.358c1.385,0.545,3.877,0.711,5.918,0.711c13.875,0,25.121-11.248,25.121-25.124
				c0-13.875-11.246-25.123-25.121-25.123c-2.834,0-5.557,0.477-8.096,1.341c5.439,5.87,8.77,13.725,8.77,22.359
				c0,8.259-3.76,15.253-8.066,21.583C152.396,124.036,150.806,125.901,154.504,127.358z"/>
			<g>
				<path fill="#7B6F76" d="M83.496,133.851c-17.078,0-30.973-13.895-30.973-30.973c0-17.078,13.895-30.973,30.973-30.973
					s30.972,13.895,30.972,30.973C114.468,119.956,100.574,133.851,83.496,133.851z M83.496,72.905
					c-16.527,0-29.973,13.445-29.973,29.973c0,16.528,13.445,29.973,29.973,29.973c16.526,0,29.972-13.445,29.972-29.973
					C113.468,86.35,100.022,72.905,83.496,72.905z"/>
			</g>
			<g>
				<path fill="#7B6F76" d="M160.421,133.851c-17.078,0-30.971-13.895-30.971-30.973c0-17.078,13.893-30.973,30.971-30.973
					c17.079,0,30.972,13.895,30.972,30.973C191.393,119.956,177.5,133.851,160.421,133.851z M160.421,72.905
					c-16.526,0-29.971,13.445-29.971,29.973c0,16.528,13.445,29.973,29.971,29.973s29.972-13.445,29.972-29.973
					C190.393,86.35,176.947,72.905,160.421,72.905z"/>
			</g>
			<path fill="#7B6F76" d="M53.356,107.651c-0.53,0.252-1.167,0.295-1.801,0.086c-0.603-0.209-1.281-0.76-1.385-1.643
				c-0.146-1.15-0.174-2.183-0.19-3.279c0.02-1.104,0.045-2.117,0.196-3.293c0.134-0.898,0.821-1.405,1.425-1.61
				c0.632-0.194,1.277-0.146,1.799,0.114l-0.014,0.098c-0.526-0.066-1.076,0.012-1.543,0.257c-0.459,0.239-0.852,0.679-0.883,1.194
				l0.018,3.24l-0.02,3.241c0.014,0.52,0.393,0.968,0.85,1.215c0.461,0.256,1.012,0.341,1.538,0.28L53.356,107.651z"/>
			<path fill="#7B6F76" d="M56.285,117.87c-0.699,0.566-1.411,1.088-2.104,1.625c-0.692,0.539-1.398,1.049-2.034,1.635
				c-0.678,0.535-1.283,1.145-1.824,1.789c-0.526,0.65-0.979,1.381-1.037,2.275l-0.05,0.006c-0.13-0.904,0.271-1.781,0.77-2.504
				c0.511-0.73,1.147-1.363,1.817-1.945c1.364-1.143,2.871-2.1,4.44-2.926L56.285,117.87z"/>
			<path fill="#7B6F76" d="M182.359,124.005c0.617,0.436,1.186,0.9,1.76,1.355c0.572,0.453,1.115,0.934,1.701,1.354
				c0.547,0.473,1.137,0.877,1.725,1.279c0.596,0.395,1.207,0.75,1.912,1.004l-0.004,0.049c-0.744-0.074-1.441-0.367-2.094-0.713
				c-0.65-0.352-1.262-0.773-1.848-1.227c-1.154-0.924-2.215-1.959-3.191-3.068L182.359,124.005z"/>
			<path fill="#B5B6B6" d="M126.52,103c-1.12-1.398-2.879-2.291-4.674-2.268c-1.797-0.023-3.556,0.869-4.675,2.268l-0.041-0.029
				c0.427-0.828,1.131-1.497,1.95-1.986c0.819-0.492,1.811-0.717,2.754-0.75c0.986,0.031,1.947,0.258,2.777,0.75
				c0.818,0.488,1.523,1.157,1.95,1.986L126.52,103z"/>
			<path fill="#B5B6B6" d="M131.17,93.413c-1.468-0.643-3.02-1.072-4.586-1.4c-1.567-0.316-3.163-0.539-4.76-0.548
				c-1.6,0.009-3.193,0.23-4.761,0.548c-1.565,0.328-3.118,0.758-4.585,1.4l-0.021-0.045c0.706-0.391,1.446-0.725,2.2-1.023
				c0.763-0.275,1.54-0.508,2.326-0.711c1.572-0.395,3.196-0.619,4.832-0.668c1.666,0.047,3.269,0.274,4.848,0.666
				c0.785,0.205,1.563,0.438,2.326,0.711c0.752,0.3,1.498,0.636,2.199,1.025L131.17,93.413z"/>
			<path fill="#3A3B3B" d="M130.143,108.055c-0.59,0.011-1.051-0.451-1.41-0.869c-0.365-0.439-0.672-0.921-0.961-1.41
				c-0.562-0.986-1.038-2.02-1.505-3.045c-0.479-1.006-0.993-2.01-1.7-2.846c-0.689-0.844-1.65-1.452-2.717-1.408
				c-1.082-0.043-2.033,0.563-2.725,1.408c-0.709,0.836-1.221,1.839-1.701,2.846c-0.467,1.024-0.943,2.059-1.505,3.045
				c-0.288,0.489-0.595,0.971-0.962,1.41c-0.357,0.418-0.818,0.88-1.409,0.869c0.585-0.033,0.99-0.51,1.313-0.945
				c0.326-0.453,0.594-0.948,0.842-1.45c0.512-1.001,0.943-2.035,1.369-3.083c0.434-1.052,0.969-2.076,1.703-2.983
				c0.37-0.448,0.805-0.864,1.33-1.165c0.521-0.303,1.146-0.453,1.736-0.449c0.604-0.003,1.217,0.146,1.742,0.45
				c0.525,0.302,0.961,0.716,1.33,1.165c0.734,0.906,1.268,1.932,1.704,2.982c0.426,1.048,0.857,2.084,1.368,3.084
				c0.249,0.502,0.517,0.996,0.843,1.45C129.153,107.545,129.557,108.022,130.143,108.055z"/>
			<path fill="#7B6F76" d="M190.568,107.551c0.527,0.061,1.078-0.025,1.539-0.28c0.457-0.247,0.836-0.695,0.85-1.215l-0.02-3.241
				l0.018-3.241c-0.031-0.516-0.424-0.954-0.883-1.193c-0.469-0.245-1.018-0.323-1.543-0.257l-0.014-0.098
				c0.521-0.26,1.166-0.309,1.799-0.114c0.604,0.205,1.289,0.712,1.426,1.61c0.15,1.176,0.176,2.189,0.195,3.293
				c-0.016,1.097-0.045,2.129-0.189,3.279c-0.104,0.884-0.783,1.434-1.387,1.643c-0.633,0.209-1.27,0.166-1.801-0.086
				L190.568,107.551z"/>
			<path fill="#3A3B3B" d="M83.496,72.364c3.99-0.115,8.012,0.625,11.752,2.095c3.734,1.495,7.168,3.747,10.056,6.569
				c5.806,5.641,9.169,13.688,9.164,21.814c0.007,8.102-3.358,16.167-9.163,21.803c-2.887,2.822-6.322,5.074-10.056,6.568
				c-3.741,1.471-7.763,2.209-11.753,2.096c7.984-0.17,15.768-3.553,21.266-9.209c2.74-2.824,4.98-6.141,6.466-9.781
				c1.498-3.636,2.255-7.554,2.241-11.49c0.017-3.911-0.742-7.849-2.24-11.478c-1.487-3.641-3.725-6.957-6.467-9.783
				C99.264,75.914,91.48,72.53,83.496,72.364z"/>
			<path fill="#3A3B3B" d="M160.422,72.364c3.99-0.115,8.012,0.625,11.752,2.095c3.732,1.495,7.168,3.747,10.055,6.569
				c5.807,5.641,9.168,13.688,9.164,21.814c0.008,8.102-3.359,16.167-9.162,21.803c-2.889,2.822-6.322,5.074-10.057,6.568
				c-3.74,1.471-7.762,2.209-11.752,2.096c7.984-0.17,15.768-3.553,21.264-9.209c2.74-2.824,4.98-6.141,6.467-9.781
				c1.498-3.636,2.256-7.554,2.242-11.49c0.016-3.911-0.744-7.849-2.24-11.478c-1.488-3.641-3.725-6.957-6.467-9.782
				C176.189,75.914,168.406,72.53,160.422,72.364z"/>
			<path fill="#B5B6B6" d="M83.496,75.589c3.566-0.071,7.162,0.562,10.508,1.877c3.334,1.348,6.393,3.373,8.959,5.903
				c5.158,5.049,8.199,12.203,8.204,19.473c-0.009,7.244-3.046,14.417-8.206,19.459c-2.564,2.531-5.623,4.557-8.957,5.904
				c-3.346,1.316-6.941,1.947-10.508,1.877v-0.049c7.133,0.033,14.207-2.91,19.223-7.977c5.06-5.02,7.991-12.094,7.949-19.222
				c0.042-7.126-2.89-14.201-7.949-19.222c-5.016-5.066-12.09-8.009-19.223-7.975V75.589z"/>
			<path fill="#B5B6B6" d="M160.422,75.589c3.566-0.071,7.162,0.561,10.508,1.876c3.334,1.348,6.393,3.373,8.959,5.904
				c5.158,5.048,8.197,12.203,8.203,19.473c-0.008,7.244-3.045,14.417-8.205,19.459c-2.564,2.531-5.623,4.557-8.957,5.904
				c-3.346,1.316-6.941,1.947-10.508,1.877v-0.049c7.133,0.033,14.207-2.91,19.223-7.977c5.059-5.02,7.99-12.094,7.949-19.222
				c0.041-7.125-2.891-14.201-7.949-19.222c-5.016-5.066-12.09-8.009-19.223-7.975V75.589z"/>
		</g>
	</g>
	<g>
		<linearGradient id="SVGID_19_" gradientUnits="userSpaceOnUse" x1="4.9497" y1="100" x2="174.9492" y2="100">
			<stop  offset="0" style="stop-color:#000000"/>
			<stop  offset="1" style="stop-color:#FFFFFF;stop-opacity:0"/>
		</linearGradient>
		<path fill="url(#SVGID_19_)" d="M131.867,26l41.933,74l-41.933,74H48.031L6.099,100l41.932-74H131.867 M132.45,25H47.449L4.95,100
			l42.499,75h85.001l42.5-75L132.45,25L132.45,25z"/>
	</g>
</g>
</svg>
